if (_typeface_js && _typeface_js.loadFace) _typeface_js.loadFace({"glyphs":{"₅":{"x_min":34.640625,"x_max":303,"ha":343,"o":"m 303 -4 q 266 -104 303 -75 q 171 -134 229 -134 q 104 -122 131 -134 q 61 -92 77 -111 q 38 -46 45 -72 q 35 12 32 -19 l 123 21 q 130 -37 118 -15 q 173 -60 141 -60 q 217 -5 217 -60 l 217 141 q 172 182 217 182 q 118 151 133 182 l 47 151 l 47 454 l 303 454 l 303 383 l 123 383 l 123 234 l 127 234 q 194 251 156 251 q 276 222 249 251 q 303 150 303 194 l 303 -4 "},"е":{"x_min":43,"x_max":447,"ha":496,"o":"m 249 91 q 310 118 290 91 q 333 193 330 145 l 446 172 q 391 37 440 84 q 241 -10 341 -10 q 165 1 197 -10 q 111 32 133 13 q 75 74 88 51 q 56 122 62 98 q 49 163 52 138 q 45 218 47 188 q 43 279 44 248 q 43 336 43 309 q 43 406 43 370 q 47 473 44 441 q 54 532 49 505 q 65 577 58 559 q 129 664 84 632 q 252 696 174 696 q 401 638 355 696 q 447 481 447 581 l 447 312 l 153 312 q 155 221 153 266 q 164 153 157 177 q 249 91 183 91 m 336 401 l 336 459 q 332 510 336 486 q 319 552 329 534 q 292 581 309 571 q 247 592 274 592 q 201 580 222 592 q 167 536 180 568 q 158 483 160 516 q 154 401 155 449 l 336 401 "},"e":{"x_min":43,"x_max":447,"ha":496,"o":"m 249 91 q 310 118 290 91 q 333 193 330 145 l 446 172 q 391 37 440 84 q 241 -10 341 -10 q 165 1 197 -10 q 111 32 133 13 q 75 74 88 51 q 56 122 62 98 q 49 163 52 138 q 45 218 47 188 q 43 279 44 248 q 43 336 43 309 q 43 406 43 370 q 47 473 44 441 q 54 532 49 505 q 65 577 58 559 q 129 664 84 632 q 252 696 174 696 q 401 638 355 696 q 447 481 447 581 l 447 312 l 153 312 q 155 221 153 266 q 164 153 157 177 q 249 91 183 91 m 336 401 l 336 459 q 332 510 336 486 q 319 552 329 534 q 292 581 309 571 q 247 592 274 592 q 201 580 222 592 q 167 536 180 568 q 158 483 160 516 q 154 401 155 449 l 336 401 "},"Ѓ":{"x_min":73,"x_max":464.96875,"ha":497,"o":"m 183 864 l 183 0 l 73 0 l 73 967 l 464 967 l 464 864 l 183 864 m 175 1046 l 372 1203 l 440 1123 l 215 996 l 175 1046 "},"ў":{"x_min":6.828125,"x_max":462.421875,"ha":467,"o":"m 265 -114 q 212 -226 248 -184 q 102 -269 176 -269 l 61 -269 l 61 -175 l 88 -175 q 145 -149 127 -175 q 177 -54 162 -123 l 188 -5 l 6 686 l 123 686 l 181 423 l 237 186 l 241 186 l 292 426 l 349 686 l 462 686 l 265 -114 m 149 958 q 157 929 150 944 q 176 900 164 913 q 204 879 187 887 q 242 871 221 871 q 281 879 264 871 q 311 900 299 887 q 330 929 324 913 q 336 958 336 944 l 424 958 q 410 901 421 931 q 376 847 399 872 q 321 805 354 822 q 242 789 287 789 q 155 805 190 789 q 99 847 121 822 q 68 901 78 872 q 58 958 58 931 l 149 958 "},"^":{"x_min":16.671875,"x_max":515.3125,"ha":528,"o":"m 229 963 l 302 963 l 515 467 l 426 467 l 265 861 l 105 467 l 16 467 l 229 963 "},"ⁿ":{"x_min":28,"x_max":319,"ha":350,"o":"m 119 809 q 159 835 134 825 q 207 846 184 846 q 290 812 262 846 q 319 725 319 778 l 319 388 l 229 388 l 229 701 q 215 744 229 727 q 173 761 201 761 q 131 743 145 761 q 118 698 118 726 l 118 388 l 28 388 l 28 843 l 119 843 l 119 809 "},"к":{"x_min":48,"x_max":505.25,"ha":521,"o":"m 48 0 l 48 685 l 158 685 l 158 388 l 205 388 q 242 390 223 388 q 279 403 262 393 q 311 434 296 414 q 334 487 326 454 l 387 685 l 492 685 l 438 486 q 401 402 424 436 q 342 357 378 368 q 410 310 388 346 q 445 222 431 273 l 505 0 l 396 0 l 349 189 q 328 243 341 222 q 299 276 316 265 q 262 291 283 287 q 220 296 242 296 l 158 296 l 158 0 l 48 0 "},"⁻":{"x_min":37.5,"x_max":284.75,"ha":314,"o":"m 37 717 l 37 786 l 284 786 l 284 717 l 37 717 "},"ˆ":{"x_min":41.671875,"x_max":458.375,"ha":503,"o":"m 250 897 l 88 767 l 41 805 l 222 999 l 287 999 l 458 808 l 411 767 l 250 897 "},"’":{"x_min":78,"x_max":203,"ha":247,"o":"m 139 685 l 78 685 l 111 840 l 82 840 l 82 975 l 203 975 l 203 843 l 139 685 "},"-":{"x_min":68.0625,"x_max":427.8125,"ha":481,"o":"m 68 351 l 68 444 l 427 444 l 427 351 l 68 351 "},"ѕ":{"x_min":41,"x_max":432.90625,"ha":470,"o":"m 154 193 q 173 118 152 146 q 234 91 194 91 q 305 114 286 91 q 325 189 325 138 q 320 230 325 213 q 305 261 316 248 q 274 285 294 274 q 223 309 255 296 q 136 351 170 328 q 83 398 102 373 q 57 451 64 423 q 51 509 51 479 q 98 643 51 591 q 242 696 146 696 q 389 645 345 696 q 432 507 432 595 l 319 492 q 299 570 321 546 q 241 595 277 595 q 199 587 216 595 q 173 567 182 579 q 161 539 164 554 q 158 510 158 524 q 162 478 158 493 q 178 451 166 464 q 213 425 191 437 q 273 400 235 412 q 355 360 324 382 q 403 313 386 339 q 425 257 420 287 q 430 191 430 227 q 384 44 430 99 q 239 -10 339 -10 q 91 37 139 -10 q 41 175 43 85 l 154 193 "},"Q":{"x_min":65,"x_max":561.390625,"ha":575,"o":"m 510 260 q 483 103 510 164 l 561 40 l 507 -26 l 431 33 q 287 -10 377 -10 q 116 55 167 -10 q 65 227 65 120 l 65 704 q 74 804 65 755 q 107 890 83 852 q 174 952 131 929 q 287 975 217 975 q 403 954 359 975 q 471 898 447 934 q 502 813 494 862 q 510 707 510 765 l 510 260 m 400 724 q 396 775 400 749 q 381 823 393 801 q 347 859 370 844 q 287 874 325 874 q 223 853 245 874 q 190 806 201 833 q 177 747 179 778 q 175 695 175 716 l 175 226 q 179 182 175 206 q 195 138 183 158 q 229 104 208 117 q 286 91 251 91 q 344 104 322 91 l 262 172 l 316 237 l 392 176 q 400 246 400 207 l 400 724 "},"Ш":{"x_min":73,"x_max":782,"ha":856,"o":"m 782 967 l 782 0 l 73 0 l 73 967 l 183 967 l 183 106 l 372 106 l 372 967 l 482 967 l 482 106 l 672 106 l 672 967 l 782 967 "},"M":{"x_min":74,"x_max":710,"ha":784,"o":"m 593 669 l 516 469 l 417 234 l 365 234 l 266 469 l 190 669 l 184 669 l 184 0 l 74 0 l 74 967 l 185 967 l 300 665 l 389 429 l 393 429 l 484 672 l 597 967 l 710 967 l 710 0 l 600 0 l 600 669 l 593 669 "},"ј":{"x_min":-25,"x_max":178,"ha":244,"o":"m 67 857 l 67 968 l 178 968 l 178 857 l 67 857 m 178 -95 q 170 -164 178 -131 q 144 -221 162 -196 q 95 -261 126 -246 q 16 -276 63 -276 l -25 -276 l -25 -172 l -5 -172 q 54 -151 41 -172 q 67 -73 67 -130 l 67 686 l 178 686 l 178 -95 "},"₍":{"x_min":25,"x_max":194.28125,"ha":190,"o":"m 147 -219 q 61 -63 98 -152 q 25 129 25 25 q 61 318 25 233 q 148 471 98 402 l 194 451 q 128 298 152 382 q 104 132 104 214 q 128 -38 104 44 q 192 -188 152 -121 l 147 -219 "},"―":{"x_min":27.78125,"x_max":1361.21875,"ha":1389,"o":"m 27 320 l 27 424 l 1361 424 l 1361 320 l 27 320 "},"{":{"x_min":26.109375,"x_max":297,"ha":319,"o":"m 235 -143 q 149 -102 184 -143 q 115 5 115 -62 l 115 200 q 96 322 115 273 q 26 378 78 371 l 26 448 q 69 469 52 453 q 96 509 85 485 q 110 564 106 533 q 115 629 115 596 l 115 819 q 149 929 115 889 q 235 970 184 970 l 297 970 l 297 895 l 270 895 q 241 883 252 895 q 223 855 230 872 q 213 816 216 838 q 211 774 211 794 l 211 599 q 201 522 211 554 q 178 467 192 489 q 150 433 165 444 q 126 417 135 421 l 126 413 q 150 397 135 408 q 178 362 165 385 q 201 308 192 340 q 211 233 211 276 l 211 51 q 213 9 211 31 q 223 -29 216 -12 q 241 -57 230 -46 q 270 -69 252 -69 l 297 -69 l 297 -143 l 235 -143 "},"#":{"x_min":9.71875,"x_max":512.546875,"ha":528,"o":"m 287 313 l 166 313 l 109 0 l 36 0 l 94 313 l 9 313 l 9 385 l 108 385 l 145 593 l 61 593 l 61 665 l 159 665 l 218 974 l 291 974 l 233 665 l 354 665 l 411 974 l 484 974 l 426 665 l 512 665 l 512 593 l 412 593 l 375 385 l 461 385 l 461 313 l 361 313 l 302 0 l 229 0 l 287 313 m 180 385 l 301 385 l 340 593 l 219 593 l 180 385 "},"Џ":{"x_min":73,"x_max":515,"ha":589,"o":"m 515 967 l 515 0 l 352 0 l 352 -203 l 249 -203 l 249 0 l 73 0 l 73 967 l 183 967 l 183 104 l 405 104 l 405 967 l 515 967 "},")":{"x_min":48.484375,"x_max":285,"ha":292,"o":"m 49 -122 q 149 133 112 -9 q 186 427 186 276 q 149 711 186 568 q 48 970 113 855 l 101 996 q 172 877 138 940 q 230 742 205 814 q 270 591 255 670 q 285 422 285 511 q 269 254 285 334 q 229 102 254 174 q 170 -33 204 30 q 98 -153 136 -97 l 49 -122 "},"э":{"x_min":31.09375,"x_max":430,"ha":479,"o":"m 126 397 l 320 397 q 315 483 318 448 q 306 538 313 518 q 273 582 293 570 q 225 595 253 595 q 167 571 189 595 q 144 503 146 547 l 31 521 q 83 646 35 597 q 231 696 132 696 q 348 665 308 696 q 407 582 388 634 q 418 538 413 565 q 425 477 423 511 q 428 407 427 444 q 430 336 430 370 q 429 279 430 309 q 427 218 428 248 q 424 163 427 188 q 417 122 421 138 q 397 72 410 97 q 361 30 383 48 q 307 1 339 12 q 233 -10 276 -10 q 84 36 133 -10 q 32 164 36 83 l 144 178 q 166 115 147 139 q 225 91 184 91 q 281 108 261 91 q 311 155 301 125 q 319 217 318 177 q 321 298 321 256 l 126 298 l 126 397 "},"ш":{"x_min":67,"x_max":714,"ha":781,"o":"m 714 686 l 714 0 l 67 0 l 67 686 l 175 686 l 175 104 l 335 104 l 335 686 l 445 686 l 445 104 l 607 104 l 607 686 l 714 686 "},"Я":{"x_min":48.75,"x_max":525,"ha":594,"o":"m 48 0 l 107 301 q 137 397 118 354 q 200 468 157 441 q 140 498 164 477 q 102 547 116 519 q 83 609 89 575 q 78 682 78 643 q 136 894 78 821 q 312 967 194 967 l 525 967 l 525 0 l 415 0 l 415 432 l 356 432 q 317 427 338 432 q 275 406 295 422 q 238 361 255 390 q 212 281 220 331 l 161 0 l 48 0 m 189 681 q 322 529 189 529 l 415 529 l 415 864 l 331 864 q 262 850 290 864 q 218 811 234 836 q 195 754 202 787 q 189 681 189 720 "},"₈":{"x_min":38,"x_max":305,"ha":343,"o":"m 305 266 q 293 214 305 235 q 261 177 281 192 q 293 141 281 162 q 305 88 305 120 l 305 -14 q 264 -101 305 -71 q 172 -131 224 -131 q 121 -123 145 -131 q 78 -101 97 -115 q 49 -64 60 -86 q 38 -14 38 -43 l 38 89 q 49 141 38 119 q 82 178 61 162 q 38 266 38 208 l 38 340 q 49 391 38 369 q 78 427 60 412 q 121 449 97 441 q 172 457 145 457 q 264 427 224 457 q 305 340 305 397 l 305 266 m 219 99 q 205 131 219 118 q 172 145 192 145 q 137 131 150 145 q 124 99 124 118 l 124 -12 q 137 -44 124 -31 q 172 -57 150 -57 q 205 -44 192 -57 q 219 -12 219 -31 l 219 99 m 219 340 q 205 370 219 358 q 172 383 192 383 q 137 370 150 383 q 124 340 124 358 l 124 258 q 137 227 124 241 q 172 214 150 214 q 205 227 192 214 q 219 258 219 241 l 219 340 "},"a":{"x_min":38,"x_max":444,"ha":501,"o":"m 332 59 q 268 7 304 22 q 189 -8 233 -8 q 117 9 146 -8 q 70 55 87 26 q 45 119 53 83 q 38 192 38 154 q 46 269 38 230 q 75 340 54 308 q 132 392 96 372 q 224 413 168 413 l 333 413 l 333 504 q 314 568 333 544 q 242 592 295 592 q 188 575 214 592 q 155 521 162 558 l 51 550 q 117 657 66 618 q 248 696 169 696 q 392 653 341 696 q 444 505 444 611 l 444 0 l 333 0 l 333 59 l 332 59 m 333 317 l 252 317 q 177 291 209 317 q 145 198 145 265 q 165 124 145 150 q 230 99 186 99 q 307 128 281 99 q 333 208 333 157 l 333 317 "},"=":{"x_min":12.5,"x_max":516.703125,"ha":528,"o":"m 12 473 l 12 561 l 516 561 l 516 473 l 12 473 m 12 261 l 12 349 l 516 349 l 516 261 l 12 261 "},"Ћ":{"x_min":14.203125,"x_max":611,"ha":682,"o":"m 500 0 l 500 427 q 480 511 500 478 q 401 544 461 544 q 341 529 377 544 q 278 485 305 514 l 278 0 l 167 0 l 167 866 l 14 866 l 14 967 l 511 967 l 511 866 l 278 866 l 278 599 l 281 599 q 362 640 321 630 q 433 651 404 651 q 611 462 611 651 l 611 0 l 500 0 "},"˚":{"x_min":140,"x_max":392,"ha":502,"o":"m 266 753 q 217 762 240 753 q 176 789 194 772 q 149 828 159 805 q 140 878 140 851 q 149 927 140 904 q 176 966 159 950 q 217 993 194 983 q 266 1003 240 1003 q 355 966 319 1003 q 392 878 392 930 q 355 789 392 825 q 266 753 319 753 m 266 942 q 219 923 238 942 q 200 876 200 904 q 219 829 200 848 q 266 810 238 810 q 313 829 294 810 q 332 876 332 848 q 313 923 332 904 q 266 942 294 942 "},"д":{"x_min":28,"x_max":563,"ha":591,"o":"m 129 -172 l 28 -172 l 28 82 l 65 94 q 89 123 79 107 q 108 163 99 138 q 121 225 116 188 q 129 318 126 262 l 142 686 l 513 686 l 513 97 l 563 97 l 563 -172 l 463 -172 l 463 0 l 129 0 l 129 -172 m 403 589 l 248 589 l 235 313 q 222 185 230 238 q 194 97 214 131 l 403 97 l 403 589 "},"Z":{"x_min":27.78125,"x_max":419.484375,"ha":446,"o":"m 419 867 l 140 101 l 418 101 l 418 0 l 27 0 l 27 99 l 309 866 l 41 866 l 41 967 l 419 967 l 419 867 "},"⁸":{"x_min":38,"x_max":305,"ha":343,"o":"m 305 904 q 293 852 305 873 q 261 815 281 830 q 293 779 281 800 q 305 726 305 758 l 305 623 q 264 536 305 566 q 172 507 224 507 q 121 514 145 507 q 78 536 97 522 q 49 572 60 551 q 38 623 38 594 l 38 726 q 49 778 38 756 q 82 815 61 799 q 38 904 38 845 l 38 978 q 49 1028 38 1007 q 78 1065 60 1050 q 121 1087 97 1079 q 172 1095 145 1095 q 264 1065 224 1095 q 305 978 305 1035 l 305 904 m 219 736 q 205 768 219 755 q 172 782 192 782 q 137 768 150 782 q 124 736 124 755 l 124 625 q 137 593 124 605 q 172 581 150 581 q 205 593 192 581 q 219 625 219 605 l 219 736 m 219 977 q 205 1008 219 995 q 172 1021 192 1021 q 137 1008 150 1021 q 124 977 124 995 l 124 895 q 137 864 124 878 q 172 851 150 851 q 205 864 192 851 q 219 895 219 878 l 219 977 "},"u":{"x_min":50,"x_max":457,"ha":513,"o":"m 348 69 l 343 69 q 202 -6 294 -6 q 88 43 126 -6 q 50 172 50 92 l 50 688 l 161 688 l 161 201 q 250 100 161 100 q 319 129 290 100 q 349 207 349 158 l 349 688 l 457 688 l 457 1 l 348 1 l 348 69 "},"k":{"x_min":58,"x_max":513.875,"ha":519,"o":"m 170 356 l 362 686 l 484 685 l 326 420 l 513 0 l 395 0 l 255 324 l 168 166 l 168 0 l 58 0 l 58 1008 l 168 1008 l 168 356 l 170 356 "},"З":{"x_min":17.578125,"x_max":457,"ha":528,"o":"m 233 975 q 325 963 284 975 q 395 922 366 951 q 441 846 425 894 q 457 724 457 798 q 453 667 457 699 q 440 602 450 634 q 414 544 430 570 q 372 503 398 517 l 372 499 q 418 457 401 483 q 444 401 436 431 q 454 339 452 371 q 457 276 457 306 q 404 63 457 137 q 233 -10 351 -10 q 144 3 184 -10 q 74 43 104 16 q 30 111 45 70 q 18 209 15 152 l 125 229 q 152 120 125 150 q 234 91 180 91 q 276 99 256 91 q 311 129 296 107 q 334 186 325 150 q 344 278 344 223 q 339 345 344 313 q 321 400 334 377 q 289 437 309 423 q 238 451 269 451 l 176 451 l 176 547 l 241 547 q 290 560 270 547 q 323 596 310 573 q 341 652 335 620 q 347 720 347 684 q 337 795 347 765 q 313 842 328 825 q 276 867 297 860 q 231 874 255 874 q 149 833 173 874 q 125 733 125 792 l 18 757 q 81 918 22 861 q 233 975 141 975 "},"↓":{"x_min":36.078125,"x_max":651.90625,"ha":674,"o":"m 388 169 l 589 372 l 651 308 l 343 3 l 36 308 l 98 372 l 300 169 l 300 971 l 388 971 l 388 169 "},"B":{"x_min":74,"x_max":513,"ha":574,"o":"m 404 507 q 490 428 467 487 q 513 284 513 369 q 451 67 513 134 q 259 0 389 0 l 74 0 l 74 967 l 277 967 q 453 900 402 967 q 505 711 505 833 q 482 589 505 634 q 404 512 460 544 l 404 507 m 408 295 q 378 418 408 375 q 264 461 348 461 l 184 461 l 184 99 l 269 99 q 342 114 315 99 q 383 157 369 130 q 403 220 398 185 q 408 295 408 255 m 400 712 q 367 826 400 787 q 258 866 334 866 l 184 866 l 184 557 l 257 557 q 366 597 333 557 q 400 712 400 637 "},"…":{"x_min":72,"x_max":774,"ha":843,"o":"m 72 0 l 72 126 l 193 126 l 193 0 l 72 0 m 361 0 l 361 126 l 482 126 l 482 0 l 361 0 m 653 0 l 653 126 l 774 126 l 774 0 l 653 0 "},"В":{"x_min":74,"x_max":513,"ha":574,"o":"m 404 507 q 490 428 467 487 q 513 284 513 369 q 451 67 513 134 q 259 0 389 0 l 74 0 l 74 967 l 277 967 q 453 900 402 967 q 505 711 505 833 q 482 589 505 634 q 404 512 460 544 l 404 507 m 408 295 q 378 418 408 375 q 264 461 348 461 l 184 461 l 184 99 l 269 99 q 342 114 315 99 q 383 157 369 130 q 403 220 398 185 q 408 295 408 255 m 400 712 q 367 826 400 787 q 258 866 334 866 l 184 866 l 184 557 l 257 557 q 366 597 333 557 q 400 712 400 637 "},"І":{"x_min":78,"x_max":189,"ha":267,"o":"m 78 0 l 78 967 l 189 967 l 189 0 l 78 0 "},"H":{"x_min":74,"x_max":518,"ha":593,"o":"m 408 0 l 408 446 l 184 446 l 184 0 l 74 0 l 74 967 l 184 967 l 184 542 l 408 542 l 408 967 l 518 967 l 518 0 l 408 0 "},"U":{"x_min":69,"x_max":514,"ha":583,"o":"m 514 965 l 514 259 q 463 60 514 130 q 291 -10 413 -10 q 120 55 171 -10 q 69 227 69 120 l 69 965 l 179 965 l 179 226 q 183 182 179 206 q 199 138 187 158 q 233 104 212 117 q 290 91 255 91 q 347 104 324 91 q 381 140 369 118 q 399 189 394 161 q 404 246 404 217 l 404 965 l 514 965 "},"F":{"x_min":73,"x_max":487.1875,"ha":508,"o":"m 73 0 l 73 967 l 487 967 l 487 866 l 183 866 l 183 542 l 446 542 l 446 441 l 183 441 l 183 0 l 73 0 "},"←":{"x_min":113.890625,"x_max":1082.03125,"ha":1167,"o":"m 1082 490 l 1082 401 l 280 402 l 483 201 l 419 139 l 113 445 l 419 754 l 483 691 l 280 490 l 1082 490 "},"*":{"x_min":31.953125,"x_max":431.984375,"ha":488,"o":"m 384 614 l 315 567 l 231 705 l 147 565 l 79 613 l 183 741 l 31 781 l 59 860 l 202 801 l 190 965 l 273 965 l 261 801 l 402 860 l 431 781 l 279 741 l 384 614 "},"†":{"x_min":15.265625,"x_max":481.734375,"ha":497,"o":"m 297 553 l 297 -219 l 200 -219 l 200 553 l 15 553 l 15 650 l 200 650 l 200 939 l 297 939 l 297 650 l 481 650 l 481 553 l 297 553 "},"Ќ":{"x_min":73,"x_max":573.3125,"ha":588,"o":"m 73 0 l 73 967 l 183 967 l 183 546 l 233 546 q 276 550 253 546 q 321 568 299 554 q 361 611 342 583 q 391 687 380 639 l 458 967 l 558 967 l 494 683 q 448 564 478 612 q 376 501 417 516 q 459 432 430 482 q 503 311 488 383 l 573 0 l 463 0 l 401 291 q 373 370 389 340 q 334 416 356 400 q 287 437 312 432 q 238 442 263 442 l 183 442 l 183 0 l 73 0 m 215 1046 l 412 1203 l 480 1123 l 255 996 l 215 1046 "},"0":{"x_min":68,"x_max":460,"ha":528,"o":"m 460 176 q 444 95 460 130 q 400 37 428 60 q 338 1 373 13 q 264 -10 302 -10 q 189 1 225 -10 q 127 37 154 13 q 83 95 99 60 q 68 176 68 130 l 68 786 q 83 867 68 831 q 127 926 99 902 q 189 962 154 950 q 264 975 225 975 q 405 926 350 975 q 460 786 460 877 l 460 176 m 350 790 q 325 848 350 826 q 264 871 301 871 q 202 848 226 871 q 178 790 178 826 l 178 171 q 202 113 178 135 q 264 91 226 91 q 325 113 301 91 q 350 171 350 135 l 350 790 "},"”":{"x_min":65,"x_max":353,"ha":407,"o":"m 289 685 l 228 685 l 261 840 l 232 840 l 232 975 l 353 975 l 353 843 l 289 685 m 126 685 l 65 685 l 98 840 l 69 840 l 69 975 l 190 975 l 190 843 l 126 685 "},"]":{"x_min":19,"x_max":204,"ha":292,"o":"m 19 -141 l 19 -72 l 111 -72 l 111 900 l 19 900 l 19 968 l 204 968 l 204 -141 l 19 -141 "},"А":{"x_min":18.0625,"x_max":534.765625,"ha":549,"o":"m 426 0 l 381 215 l 166 215 l 123 0 l 18 0 l 223 967 l 326 967 l 534 0 l 426 0 m 270 769 l 230 544 l 184 318 l 362 318 l 315 547 l 276 769 l 270 769 "},"Ы":{"x_min":71,"x_max":700,"ha":778,"o":"m 71 0 l 71 967 l 181 967 l 181 578 l 260 578 q 388 557 339 578 q 465 498 437 536 q 503 409 493 461 q 513 297 513 358 q 502 174 513 229 q 464 80 492 119 q 389 20 436 41 q 268 0 342 0 l 71 0 m 181 104 l 258 104 q 336 118 307 104 q 381 158 365 133 q 401 219 396 184 q 406 292 406 254 q 401 363 406 330 q 381 420 397 395 q 335 460 365 445 q 256 475 306 475 l 181 475 l 181 104 m 589 0 l 589 967 l 700 967 l 700 0 l 589 0 "},"8":{"x_min":68,"x_max":460,"ha":528,"o":"m 460 658 q 439 568 460 605 q 384 507 418 531 q 439 445 418 483 q 460 354 460 407 l 460 176 q 444 95 460 130 q 400 37 428 60 q 338 1 373 13 q 264 -10 302 -10 q 189 1 225 -10 q 127 37 154 13 q 83 95 99 60 q 68 176 68 130 l 68 354 q 88 445 68 407 q 143 507 108 483 q 88 568 108 531 q 68 658 68 605 l 68 786 q 83 867 68 832 q 127 926 99 902 q 189 962 154 950 q 264 975 225 975 q 338 962 302 975 q 400 926 373 950 q 444 867 428 902 q 460 786 460 832 l 460 658 m 350 379 q 325 439 350 415 q 264 463 301 463 q 202 439 226 463 q 178 379 178 415 l 178 167 q 202 111 178 131 q 264 91 226 91 q 325 111 301 91 q 350 167 350 131 l 350 379 m 350 794 q 325 852 350 830 q 264 874 301 874 q 202 852 226 874 q 178 794 178 830 l 178 636 q 202 578 178 600 q 264 556 226 556 q 325 578 301 556 q 350 636 350 600 l 350 794 "},"R":{"x_min":74,"x_max":537.234375,"ha":575,"o":"m 424 0 l 287 424 l 184 424 l 184 0 l 74 0 l 74 967 l 286 967 q 459 898 404 967 q 515 691 515 830 q 490 544 515 608 q 390 445 465 480 l 537 0 l 424 0 m 404 692 q 398 763 404 730 q 377 817 392 795 q 334 853 361 840 q 267 866 308 866 l 184 866 l 184 525 l 276 525 q 338 536 314 525 q 378 570 363 548 q 398 623 392 593 q 404 692 404 654 "},"o":{"x_min":46,"x_max":462,"ha":502,"o":"m 257 696 q 352 680 316 696 q 411 638 389 665 q 443 574 433 611 q 456 494 453 537 q 460 408 459 454 q 462 326 462 362 q 454 167 462 247 q 426 77 447 112 q 375 23 405 42 q 311 -3 345 3 q 243 -10 276 -10 q 168 1 200 -10 q 115 30 137 12 q 79 72 93 48 q 58 122 65 97 q 51 163 54 138 q 48 218 48 188 q 46 279 47 248 q 46 336 46 309 q 47 407 46 370 q 51 477 48 444 q 58 538 54 511 q 69 582 62 565 q 134 665 88 634 q 257 696 180 696 m 255 595 q 204 582 227 595 q 169 538 181 570 q 158 456 160 518 q 154 311 155 395 q 155 222 154 265 q 164 154 156 178 q 255 91 183 91 q 306 108 284 91 q 340 153 329 125 q 345 179 342 160 q 350 223 348 197 q 353 278 352 249 q 354 336 354 307 q 353 394 354 365 q 351 449 352 422 q 349 496 351 475 q 342 529 347 517 q 255 595 323 595 "},"5":{"x_min":60,"x_max":460,"ha":528,"o":"m 260 -10 q 165 7 203 -10 q 105 54 128 24 q 71 125 82 84 q 60 213 61 166 l 169 228 q 172 172 169 197 q 185 129 175 147 q 212 101 194 111 q 262 91 230 91 q 322 113 298 91 q 349 193 346 136 l 349 444 q 268 526 349 526 q 214 511 236 526 q 180 471 191 496 l 85 471 l 85 967 l 460 967 l 460 868 l 182 868 l 182 576 l 188 576 q 240 607 209 597 q 303 618 271 618 q 420 572 385 618 q 456 459 456 526 l 456 198 q 440 103 456 142 q 398 38 425 63 q 335 1 371 13 q 260 -10 300 -10 "},"⇣":{"x_min":33.09375,"x_max":648.90625,"ha":674,"o":"m 296 443 l 296 554 l 385 554 l 385 443 l 296 443 m 296 648 l 296 761 l 385 761 l 385 648 l 296 648 m 296 855 l 296 968 l 385 968 l 385 855 l 296 855 m 385 167 l 586 370 l 648 306 l 340 1 l 33 306 l 95 370 l 297 167 l 295 350 l 385 350 l 385 167 "},"Ѕ":{"x_min":46,"x_max":500,"ha":547,"o":"m 500 263 q 488 151 500 201 q 449 65 476 101 q 379 9 422 28 q 272 -10 336 -10 q 170 6 214 -10 q 100 53 127 23 q 59 123 72 83 q 46 211 46 164 l 156 233 q 161 181 156 205 q 180 137 167 157 q 216 107 193 118 q 272 96 239 96 q 338 109 314 96 q 374 145 362 122 q 389 198 386 168 q 392 262 392 229 q 387 332 392 305 q 369 379 383 359 q 330 415 355 400 q 261 448 304 430 q 152 507 193 477 q 89 570 111 537 q 59 639 66 602 q 53 720 53 676 q 66 822 53 776 q 109 903 80 869 q 180 956 137 937 q 280 975 223 975 q 385 955 343 975 q 453 904 427 936 q 489 836 479 873 q 500 762 500 798 l 392 734 q 365 835 392 800 q 275 871 339 871 q 217 857 239 871 q 183 821 196 843 q 167 773 171 800 q 163 722 163 747 q 166 668 163 691 q 185 625 169 645 q 230 586 200 605 q 314 545 260 566 q 413 493 376 520 q 469 433 450 466 q 494 358 488 399 q 500 263 500 316 "},",":{"x_min":68,"x_max":193,"ha":268,"o":"m 129 -167 l 68 -167 l 101 -11 l 72 -11 l 72 124 l 193 124 l 193 -8 l 129 -167 "},"d":{"x_min":42,"x_max":452,"ha":513,"o":"m 212 -8 q 167 -3 193 -8 q 117 19 142 1 q 73 69 93 36 q 48 160 53 103 q 42 247 43 201 q 42 333 42 293 q 45 474 42 408 q 66 589 48 540 q 119 666 83 638 q 221 695 155 695 q 290 680 261 695 q 339 638 319 665 l 342 638 l 342 1008 l 452 1008 l 452 0 l 342 0 l 342 53 l 339 54 q 291 7 316 23 q 212 -8 266 -8 m 250 99 q 319 129 295 99 q 343 207 343 160 l 343 479 q 320 557 343 528 q 250 587 298 587 q 200 575 219 587 q 171 534 182 563 q 157 457 161 504 q 153 338 153 409 q 155 228 153 274 q 166 154 157 183 q 195 112 176 125 q 250 99 215 99 "},"\"":{"x_min":53,"x_max":296,"ha":347,"o":"m 213 699 l 213 967 l 296 967 l 296 699 l 213 699 m 53 699 l 53 967 l 136 967 l 136 699 l 53 699 "},"˙":{"x_min":218,"x_max":312,"ha":501,"o":"m 218 836 l 218 947 l 312 947 l 312 836 l 218 836 "},"„":{"x_min":65,"x_max":353,"ha":428,"o":"m 289 -164 l 228 -164 l 261 -8 l 232 -8 l 232 126 l 353 126 l 353 -6 l 289 -164 m 126 -164 l 65 -164 l 98 -8 l 69 -8 l 69 126 l 190 126 l 190 -6 l 126 -164 "},"ч":{"x_min":36,"x_max":443,"ha":493,"o":"m 334 293 q 191 254 260 254 q 77 292 118 254 q 36 419 36 331 l 36 686 l 147 686 l 147 449 q 230 355 147 355 q 282 364 254 355 q 335 388 309 373 l 335 686 l 443 686 l 443 0 l 334 0 l 334 293 "},"₎":{"x_min":22.703125,"x_max":192,"ha":191,"o":"m 24 -188 q 88 -38 64 -122 q 113 132 113 44 q 88 298 113 214 q 22 451 64 382 l 68 471 q 155 318 119 402 q 192 129 192 233 q 155 -61 192 25 q 67 -218 118 -148 l 24 -188 "},"₄":{"x_min":14.65625,"x_max":328.828125,"ha":343,"o":"m 283 -39 l 283 -125 l 198 -125 l 198 -39 l 14 -39 l 14 31 l 145 453 l 231 453 l 102 36 l 198 36 l 198 192 l 283 192 l 283 36 l 328 36 l 328 -39 l 283 -39 "},"⁾":{"x_min":22.703125,"x_max":192,"ha":191,"o":"m 24 448 q 88 598 64 514 q 113 769 113 681 q 88 935 113 851 q 22 1088 64 1019 l 68 1108 q 155 955 119 1039 q 192 766 192 870 q 155 575 192 662 q 67 419 118 488 l 24 448 "},"И":{"x_min":69,"x_max":527,"ha":596,"o":"m 417 679 l 172 0 l 69 0 l 69 967 l 175 967 l 175 283 l 180 282 l 422 967 l 527 967 l 527 0 l 421 0 l 421 679 l 417 679 "},"₁":{"x_min":54,"x_max":229,"ha":292,"o":"m 144 -125 l 144 365 q 99 332 123 350 q 54 298 74 314 l 54 386 l 145 453 l 229 453 l 229 -125 l 144 -125 "},"⁼":{"x_min":3,"x_max":341,"ha":344,"o":"m 3 665 l 3 730 l 341 730 l 341 665 l 3 665 m 3 789 l 3 854 l 341 854 l 341 789 l 3 789 "},"Љ":{"x_min":-4.734375,"x_max":835,"ha":871,"o":"m 503 103 l 580 103 q 658 118 629 103 q 703 159 687 133 q 723 219 718 184 q 728 293 728 254 q 723 363 728 330 q 703 420 719 395 q 657 460 687 445 q 578 475 628 475 l 503 475 l 503 103 m 503 578 l 582 578 q 710 557 661 578 q 787 498 759 536 q 825 409 815 461 q 835 297 835 358 q 824 174 835 229 q 786 80 814 119 q 711 20 758 41 q 590 0 664 0 l 393 0 l 393 864 l 229 864 l 229 484 q 219 264 229 351 q 187 121 209 177 q 131 31 166 65 q 45 -28 96 -1 l -4 51 q 50 96 25 73 q 93 156 75 119 q 120 250 111 192 q 130 400 130 308 l 130 967 l 503 967 l 503 578 "},"р":{"x_min":46,"x_max":455,"ha":505,"o":"m 284 696 q 328 691 302 696 q 379 668 355 686 q 422 618 403 651 q 449 527 442 584 q 454 440 453 486 q 455 354 455 394 q 451 213 455 279 q 430 98 448 147 q 377 21 413 49 q 276 -7 341 -7 q 207 7 236 -7 q 159 49 178 22 l 156 49 l 156 -267 l 46 -267 l 46 688 l 156 688 l 156 634 l 159 633 q 205 680 181 664 q 284 696 230 696 m 247 589 q 178 558 201 589 q 155 480 155 527 l 155 208 q 177 130 155 159 q 247 101 199 101 q 296 112 277 101 q 325 153 315 124 q 339 230 335 183 q 344 349 344 278 q 341 459 344 413 q 330 533 339 504 q 301 575 320 562 q 247 589 281 589 "},"т":{"x_min":1.546875,"x_max":399.84375,"ha":400,"o":"m 254 589 l 254 0 l 146 0 l 146 589 l 1 589 l 1 686 l 399 686 l 399 589 l 254 589 "},"П":{"x_min":74,"x_max":502,"ha":576,"o":"m 392 0 l 392 864 l 184 864 l 184 0 l 74 0 l 74 967 l 502 967 l 502 0 l 392 0 "},"z":{"x_min":31.953125,"x_max":393,"ha":425,"o":"m 393 589 l 151 104 l 393 104 l 393 0 l 31 0 l 31 104 l 273 589 l 50 589 l 50 685 l 393 685 l 393 589 "},"⇡":{"x_min":33.484375,"x_max":648.90625,"ha":674,"o":"m 385 526 l 385 415 l 296 415 l 296 526 l 385 526 m 385 321 l 385 208 l 296 208 l 296 321 l 385 321 m 385 114 l 385 1 l 296 1 l 296 114 l 385 114 m 385 619 l 296 619 l 297 801 l 95 598 l 33 662 l 340 968 l 648 662 l 586 598 l 385 801 l 385 619 "},"₊":{"x_min":2.875,"x_max":340.34375,"ha":343,"o":"m 207 89 l 207 -44 l 139 -44 l 139 89 l 2 89 l 2 152 l 139 152 l 139 285 l 207 285 l 207 152 l 340 152 l 340 89 l 207 89 "},"и":{"x_min":63,"x_max":485,"ha":548,"o":"m 374 0 l 374 451 l 371 451 l 168 0 l 63 0 l 63 686 l 170 686 l 170 237 l 172 237 l 374 686 l 485 686 l 485 0 l 374 0 "},"~":{"x_min":13.890625,"x_max":511.15625,"ha":528,"o":"m 155 415 q 216 405 188 415 q 270 384 244 395 q 320 362 295 372 q 370 353 344 353 q 410 365 397 353 q 448 407 423 378 l 511 369 q 452 290 486 323 q 369 257 418 257 q 317 267 343 257 q 264 290 291 277 q 210 312 237 302 q 154 323 183 323 q 112 311 127 323 q 70 268 97 299 l 13 309 q 72 382 37 350 q 155 415 106 415 "},"[":{"x_min":88,"x_max":274,"ha":292,"o":"m 88 -140 l 88 968 l 274 968 l 274 900 l 182 900 l 182 -72 l 274 -72 l 274 -140 l 88 -140 "},"⇪":{"x_min":62.03125,"x_max":1090.953125,"ha":1167,"o":"m 319 0 l 834 0 l 834 -261 l 319 -261 l 319 0 m 394 -74 l 394 -186 l 760 -186 l 760 -74 l 394 -74 m 62 442 l 576 968 l 1090 442 l 834 442 l 834 140 l 319 140 l 319 442 l 62 442 m 576 863 l 234 509 l 394 509 l 394 216 l 760 216 l 760 509 l 918 509 l 576 863 "},"К":{"x_min":73,"x_max":573.3125,"ha":588,"o":"m 73 0 l 73 967 l 183 967 l 183 546 l 233 546 q 276 550 253 546 q 321 568 299 554 q 361 611 342 583 q 391 687 380 639 l 458 967 l 558 967 l 494 683 q 448 564 478 612 q 376 501 417 516 q 459 432 430 482 q 503 311 488 383 l 573 0 l 463 0 l 401 291 q 373 370 389 340 q 334 416 356 400 q 287 437 312 432 q 238 442 263 442 l 183 442 l 183 0 l 73 0 "},"⇧":{"x_min":76.03125,"x_max":1104.953125,"ha":1167,"o":"m 76 442 l 590 968 l 1104 442 l 848 442 l 848 0 l 333 0 l 333 442 l 76 442 m 590 863 l 248 509 l 408 509 l 408 74 l 774 74 l 774 509 l 932 508 l 590 863 "},"%":{"x_min":45,"x_max":803,"ha":847,"o":"m 803 110 q 762 23 803 53 q 669 -6 722 -6 q 619 1 643 -6 q 575 23 594 9 q 546 60 557 38 q 535 110 535 81 l 535 465 q 546 515 535 494 q 575 552 557 537 q 619 574 594 566 q 669 582 643 582 q 762 552 722 582 q 803 465 803 522 l 803 110 m 717 462 q 703 493 717 480 q 669 506 690 506 q 634 493 647 506 q 621 462 621 480 l 621 114 q 634 82 621 95 q 669 70 647 70 q 703 82 690 70 q 717 114 717 95 l 717 462 m 312 498 q 271 411 312 441 q 179 382 231 382 q 128 389 152 382 q 85 411 104 397 q 56 448 67 426 q 45 498 45 469 l 45 853 q 56 903 45 882 q 85 940 67 925 q 128 962 104 954 q 179 970 152 970 q 271 940 231 970 q 312 853 312 910 l 312 498 m 226 850 q 212 881 226 868 q 179 894 199 894 q 144 881 157 894 q 131 850 131 868 l 131 502 q 144 470 131 483 q 179 458 157 458 q 212 470 199 458 q 226 502 226 483 l 226 850 m 246 -24 l 175 -24 l 611 992 l 682 992 l 246 -24 "},"P":{"x_min":74,"x_max":515,"ha":548,"o":"m 270 967 q 391 947 344 967 q 466 891 438 928 q 504 800 494 854 q 515 679 515 747 q 505 565 515 618 q 467 473 495 512 q 391 411 440 433 q 262 389 341 389 l 184 389 l 184 0 l 74 0 l 74 967 l 270 967 m 184 492 l 258 492 q 338 507 308 492 q 383 547 367 522 q 403 606 399 572 q 408 676 408 639 q 403 750 408 715 q 383 811 398 785 q 338 851 367 836 q 261 866 309 866 l 184 866 l 184 492 "},"_":{"x_min":0,"x_max":694.5,"ha":695,"o":"m 0 -182 l 0 -97 l 694 -97 l 694 -182 l 0 -182 "},"↖":{"x_min":171,"x_max":1064.21875,"ha":1167,"o":"m 321 807 l 1064 62 l 1003 0 l 260 744 l 261 460 l 171 460 l 171 893 l 605 895 l 605 807 l 321 807 "},"‚":{"x_min":68,"x_max":193,"ha":268,"o":"m 129 -167 l 68 -167 l 101 -11 l 72 -11 l 72 124 l 193 124 l 193 -8 l 129 -167 "},"ѓ":{"x_min":64,"x_max":420.84375,"ha":449,"o":"m 152 795 l 247 1029 l 345 994 l 212 772 l 152 795 m 175 589 l 175 0 l 64 0 l 64 686 l 420 686 l 420 589 l 175 589 "},"ы":{"x_min":61,"x_max":636,"ha":705,"o":"m 175 104 l 234 104 q 297 114 273 104 q 333 140 320 124 q 349 176 345 156 q 354 215 354 195 q 349 256 354 236 q 332 291 345 276 q 295 314 319 305 q 231 324 270 324 l 175 324 l 175 104 m 522 0 l 522 686 l 636 686 l 636 0 l 522 0 m 61 0 l 61 686 l 175 686 l 175 427 l 234 427 q 351 409 307 427 q 420 363 395 392 q 454 297 445 335 q 464 218 464 260 q 454 127 464 168 q 419 59 444 87 q 351 15 394 30 q 241 0 308 0 l 61 0 "},"ї":{"x_min":-39,"x_max":269,"ha":236,"o":"m 175 818 l 175 929 l 269 929 l 269 818 l 175 818 m -39 818 l -39 929 l 57 929 l 57 818 l -39 818 m 61 0 l 61 686 l 172 686 l 172 0 l 61 0 "},"T":{"x_min":3.09375,"x_max":441.90625,"ha":444,"o":"m 278 866 l 278 0 l 167 0 l 167 866 l 3 866 l 3 967 l 441 967 l 441 866 l 278 866 "},"Њ":{"x_min":73,"x_max":843,"ha":879,"o":"m 401 0 l 401 454 l 183 454 l 183 0 l 73 0 l 73 967 l 183 967 l 183 557 l 401 557 l 401 967 l 511 967 l 511 557 l 590 557 q 718 538 669 557 q 795 484 767 519 q 833 400 823 450 q 843 290 843 351 q 832 168 843 222 q 794 77 822 115 q 719 20 766 40 q 598 0 672 0 l 401 0 m 511 103 l 588 103 q 666 116 637 103 q 711 155 695 130 q 731 213 726 180 q 736 286 736 247 q 731 354 736 323 q 711 406 727 384 q 665 441 695 429 q 586 454 636 454 l 511 454 l 511 103 "},"є":{"x_min":61,"x_max":460,"ha":493,"o":"m 459 164 q 406 36 454 83 q 257 -10 357 -10 q 182 1 214 -10 q 129 30 151 12 q 93 72 106 48 q 73 122 80 97 q 66 163 69 138 q 63 218 63 188 q 61 279 62 248 q 61 336 61 309 q 62 407 61 370 q 65 477 63 444 q 72 538 67 511 q 83 582 76 565 q 148 665 102 634 q 272 696 194 696 q 357 682 322 696 q 414 646 391 669 q 447 590 436 623 q 460 520 458 558 l 346 508 q 321 572 343 550 q 265 595 300 595 q 217 582 237 595 q 184 538 196 570 q 173 482 175 518 q 169 393 170 445 l 362 393 l 362 299 l 169 299 q 170 217 169 256 q 178 156 171 178 q 208 108 188 125 q 265 91 228 91 q 324 115 305 91 q 346 178 343 139 l 459 164 "},"j":{"x_min":-25,"x_max":178,"ha":244,"o":"m 67 857 l 67 968 l 178 968 l 178 857 l 67 857 m 178 -95 q 170 -164 178 -131 q 144 -221 162 -196 q 95 -261 126 -246 q 16 -276 63 -276 l -25 -276 l -25 -172 l -5 -172 q 54 -151 41 -172 q 67 -73 67 -130 l 67 686 l 178 686 l 178 -95 "},"1":{"x_min":139,"x_max":389,"ha":528,"o":"m 279 0 l 279 851 l 139 739 l 139 855 l 276 967 l 389 967 l 389 0 l 279 0 "},"›":{"x_min":62.5,"x_max":319.46875,"ha":388,"o":"m 62 64 l 208 322 l 62 581 l 170 581 l 319 322 l 170 64 l 62 64 "},"ћ":{"x_min":1.71875,"x_max":474,"ha":537,"o":"m 176 884 l 367 884 l 367 799 l 176 799 l 176 608 l 181 608 q 321 683 229 683 q 435 633 397 683 q 474 505 474 584 l 474 0 l 363 0 l 363 476 q 339 546 363 520 q 269 572 315 572 q 200 545 225 572 q 175 470 175 519 l 175 0 l 67 0 l 67 799 l 1 799 l 1 884 l 67 884 l 67 1008 l 176 1008 l 176 884 "},"→":{"x_min":115.28125,"x_max":1083.421875,"ha":1167,"o":"m 916 490 l 713 691 l 777 754 l 1083 445 l 777 139 l 713 201 l 916 402 l 115 401 l 115 490 l 916 490 "},"↩":{"x_min":47.75,"x_max":1116,"ha":1167,"o":"m 214 490 l 888 490 q 995 533 964 490 q 1027 640 1027 576 l 1027 751 q 994 847 1027 813 q 887 882 961 882 l 785 882 l 785 968 l 894 968 q 998 951 956 968 q 1066 904 1040 934 q 1104 833 1092 874 q 1116 745 1116 792 l 1116 640 q 1057 466 1116 531 q 876 401 999 401 l 214 402 l 417 201 l 353 139 l 47 445 l 353 753 l 417 691 l 214 490 "},"<":{"x_min":15.28125,"x_max":511.15625,"ha":528,"o":"m 15 372 l 15 445 l 511 700 l 511 608 l 100 408 l 511 209 l 511 118 l 15 372 "},"Ц":{"x_min":73,"x_max":561,"ha":589,"o":"m 511 967 l 511 104 l 561 104 l 561 -182 l 464 -182 l 464 0 l 73 0 l 73 967 l 183 967 l 183 104 l 401 104 l 401 967 l 511 967 "},"t":{"x_min":14,"x_max":286,"ha":321,"o":"m 197 686 l 286 686 l 286 601 l 197 601 l 197 187 q 214 119 197 134 q 264 104 231 104 l 285 104 l 285 0 l 229 0 q 156 13 184 0 q 113 49 129 27 q 91 99 97 72 q 86 152 86 126 l 86 601 l 14 601 l 14 686 l 89 686 l 89 854 l 197 854 l 197 686 "},"Ф":{"x_min":61,"x_max":633,"ha":687,"o":"m 633 299 q 612 201 633 242 q 557 131 591 159 q 483 89 524 103 q 402 72 442 74 l 402 0 l 292 0 l 292 72 q 207 88 248 73 q 134 131 166 103 q 81 201 101 159 q 61 299 61 242 l 61 684 q 81 784 61 741 q 133 854 101 826 q 207 896 165 882 q 291 914 249 911 l 291 967 l 402 967 l 403 914 q 484 896 443 911 q 558 854 525 882 q 612 784 591 826 q 633 684 633 741 l 633 299 m 527 684 q 489 778 527 743 q 401 817 451 814 l 401 168 q 490 206 453 170 q 527 300 527 241 l 527 684 m 292 817 q 202 777 237 811 q 167 684 167 743 l 167 300 q 196 207 167 241 q 292 168 225 173 l 292 817 "},"⇠":{"x_min":87.359375,"x_max":1054,"ha":1167,"o":"m 529 490 l 640 490 l 640 401 l 529 401 l 529 490 m 734 490 l 847 490 l 847 401 l 734 401 l 734 490 m 941 490 l 1054 490 l 1054 401 l 941 401 l 941 490 m 436 490 l 436 401 l 251 402 l 456 201 l 392 139 l 87 445 l 392 754 l 456 691 l 251 490 l 436 490 "},"О":{"x_min":65,"x_max":510,"ha":575,"o":"m 510 259 q 459 60 510 130 q 286 -10 408 -10 q 115 55 166 -10 q 65 227 65 120 l 65 704 q 74 804 65 755 q 107 890 83 852 q 174 952 131 929 q 287 975 217 975 q 403 954 359 975 q 471 898 447 934 q 502 813 494 862 q 510 706 510 765 l 510 259 m 400 724 q 396 775 400 749 q 381 823 393 801 q 347 859 370 844 q 287 874 325 874 q 223 853 245 874 q 190 806 201 833 q 177 747 179 778 q 175 695 175 716 l 175 226 q 179 182 175 206 q 195 138 183 158 q 229 104 208 117 q 286 91 251 91 q 343 104 320 91 q 377 140 365 118 q 395 189 390 161 q 400 246 400 217 l 400 724 "},"&":{"x_min":54,"x_max":621.96875,"ha":640,"o":"m 292 974 q 412 949 365 974 q 484 866 459 925 l 385 818 q 295 875 363 875 q 258 865 273 875 q 233 839 242 855 q 219 804 223 823 q 215 766 215 784 q 230 686 215 730 q 276 586 246 641 l 455 276 q 471 344 466 308 q 480 417 477 379 l 580 417 q 563 294 577 361 q 521 171 549 228 l 621 0 l 495 0 l 449 78 q 353 8 403 24 q 249 -8 302 -8 q 174 9 209 -8 q 111 58 138 26 q 69 135 84 90 q 54 236 54 180 q 90 387 54 322 q 194 517 127 453 q 174 550 183 533 q 159 579 166 567 q 123 667 139 615 q 108 768 108 719 q 121 848 108 811 q 158 914 134 886 q 216 958 181 942 q 292 974 251 974 m 246 428 q 182 338 205 382 q 160 242 160 293 q 167 185 160 212 q 190 137 175 158 q 227 104 205 116 q 276 93 248 93 q 346 111 312 93 q 401 160 380 130 l 246 428 "},"I":{"x_min":78,"x_max":189,"ha":267,"o":"m 78 0 l 78 967 l 189 967 l 189 0 l 78 0 "},"˝":{"x_min":130.5625,"x_max":465.3125,"ha":501,"o":"m 130 795 l 225 1029 l 323 994 l 190 772 l 130 795 m 272 795 l 366 1029 l 465 994 l 331 772 l 272 795 "},"G":{"x_min":69,"x_max":510,"ha":575,"o":"m 287 -10 q 123 51 177 -10 q 69 223 69 112 l 69 701 q 78 802 69 752 q 110 889 87 851 q 177 951 134 927 q 287 975 220 975 q 449 917 400 975 q 502 761 499 859 l 392 734 q 369 836 393 798 q 286 874 344 874 q 231 858 252 874 q 199 820 211 843 q 183 769 187 797 q 179 716 179 741 l 179 228 q 183 183 179 207 q 199 138 187 159 q 231 104 210 118 q 284 91 251 91 l 286 91 q 369 118 338 91 q 400 195 400 146 l 400 426 l 288 426 l 288 522 l 510 522 l 510 209 q 492 114 510 155 q 445 45 475 73 q 374 3 415 17 q 287 -10 333 -10 "},"ə":{"x_min":44,"x_max":449,"ha":496,"o":"m 241 595 q 180 567 201 595 q 158 492 160 540 l 45 513 q 100 648 50 601 q 249 696 149 696 q 326 684 294 696 q 380 653 358 672 q 415 611 403 634 q 435 563 428 587 q 442 522 439 547 q 446 467 444 497 q 448 406 447 437 q 449 349 449 376 q 448 279 449 315 q 444 212 447 244 q 437 153 442 180 q 426 108 433 126 q 362 21 407 53 q 238 -10 316 -10 q 89 47 135 -10 q 44 204 44 104 l 44 374 l 339 374 q 336 464 339 419 q 328 532 334 508 q 241 595 308 595 m 155 285 l 155 226 q 158 174 155 198 q 171 133 161 151 q 199 104 181 114 q 244 94 216 94 q 290 105 269 94 q 324 149 311 117 q 333 202 331 169 q 338 285 336 236 l 155 285 "},"`":{"x_min":97.234375,"x_max":290.296875,"ha":496,"o":"m 230 772 l 97 994 l 195 1029 l 290 795 l 230 772 "},"₉":{"x_min":38,"x_max":305,"ha":343,"o":"m 82 -125 q 150 35 126 -24 q 180 116 174 96 q 145 113 165 113 q 61 145 85 113 q 38 226 38 178 l 38 344 q 49 392 38 372 q 78 428 60 413 q 121 450 97 442 q 172 458 145 458 q 222 450 198 458 q 264 428 246 442 q 293 392 282 413 q 305 344 305 371 l 305 248 q 299 185 305 210 q 285 141 293 160 q 227 8 257 80 q 170 -125 197 -63 l 82 -125 m 124 226 q 137 196 124 208 q 170 185 150 185 q 208 203 198 185 q 219 241 219 222 l 219 340 q 205 371 219 359 q 172 383 192 383 q 137 371 150 383 q 124 340 124 359 l 124 226 "},"Ђ":{"x_min":16.984375,"x_max":611,"ha":682,"o":"m 433 651 q 526 632 491 651 q 579 585 561 613 q 604 523 598 556 q 611 462 611 491 l 611 213 q 564 24 611 91 q 408 -43 517 -43 l 386 -43 l 386 54 q 477 98 454 54 q 500 212 500 142 l 500 426 q 497 469 500 448 q 484 506 494 489 q 454 533 473 523 q 401 544 434 544 q 343 530 377 544 q 278 485 308 517 l 278 0 l 167 0 l 167 866 l 16 866 l 16 967 l 514 967 l 514 866 l 278 866 l 278 599 l 280 599 q 361 640 319 630 q 433 651 404 651 "},"я":{"x_min":42.984375,"x_max":471,"ha":527,"o":"m 63 481 q 115 631 63 577 q 276 686 168 686 l 471 686 l 471 0 l 360 0 l 360 289 l 300 289 q 237 266 260 289 q 199 182 214 244 l 154 0 l 42 0 l 101 215 q 125 276 109 247 q 168 320 141 305 q 86 385 109 341 q 63 481 63 429 m 294 589 q 202 557 229 589 q 176 476 176 526 q 204 407 176 432 q 285 382 232 382 l 360 382 l 360 589 l 294 589 "},"Ё":{"x_min":73,"x_max":487.1875,"ha":508,"o":"m 73 0 l 73 967 l 487 967 l 487 866 l 183 866 l 183 542 l 447 542 l 447 441 l 183 441 l 183 101 l 487 101 l 487 0 l 73 0 m 347 1045 l 347 1156 l 441 1156 l 441 1045 l 347 1045 m 133 1045 l 133 1156 l 229 1156 l 229 1045 l 133 1045 "},"₃":{"x_min":33,"x_max":307,"ha":343,"o":"m 307 -1 q 270 -101 307 -71 q 176 -131 233 -131 q 108 -119 135 -131 q 65 -89 81 -108 q 43 -43 49 -69 q 40 15 37 -16 l 127 26 q 135 -34 123 -12 q 177 -57 146 -57 q 210 -43 198 -57 q 223 -2 223 -30 l 223 77 q 162 136 223 136 l 126 136 l 126 207 l 163 207 q 223 259 223 207 l 223 329 q 213 364 223 348 q 176 381 203 381 q 133 358 145 381 q 120 299 120 336 l 33 311 q 71 415 35 374 q 180 456 106 456 q 242 446 217 456 q 281 419 266 436 q 301 380 295 403 q 307 333 307 358 l 307 280 q 302 222 307 248 q 262 176 298 197 q 300 136 294 161 q 307 72 307 112 l 307 -1 "},";":{"x_min":68,"x_max":193,"ha":268,"o":"m 129 -167 l 68 -167 l 101 -11 l 72 -11 l 72 124 l 193 124 l 193 -8 l 129 -167 m 72 417 l 72 543 l 193 543 l 193 417 l 72 417 "},"Г":{"x_min":73,"x_max":464.96875,"ha":497,"o":"m 183 864 l 183 0 l 73 0 l 73 967 l 464 967 l 464 864 l 183 864 "},"6":{"x_min":68,"x_max":460,"ha":528,"o":"m 230 539 q 302 562 259 562 q 378 547 348 562 q 426 507 408 532 q 452 449 444 482 q 460 379 460 415 l 460 176 q 444 95 460 130 q 400 37 428 60 q 338 1 373 13 q 264 -10 302 -10 q 189 1 225 -10 q 127 37 154 13 q 83 95 99 60 q 68 176 68 130 l 68 337 q 76 441 68 399 q 97 515 84 483 l 276 967 l 387 967 l 226 543 l 230 539 m 350 384 q 326 440 350 420 q 265 461 302 461 q 223 451 240 461 q 196 428 207 442 q 182 395 186 413 q 178 359 178 377 l 178 167 q 202 111 178 131 q 264 91 226 91 q 325 111 301 91 q 350 167 350 131 l 350 384 "},"Ь":{"x_min":71,"x_max":513,"ha":549,"o":"m 71 0 l 71 967 l 181 967 l 181 578 l 260 578 q 388 557 339 578 q 465 498 437 536 q 503 409 493 461 q 513 297 513 358 q 502 174 513 229 q 464 80 492 119 q 389 20 436 41 q 268 0 342 0 l 71 0 m 181 104 l 258 104 q 336 118 307 104 q 381 158 365 133 q 401 219 396 184 q 406 292 406 254 q 401 363 406 330 q 381 420 397 395 q 335 460 365 445 q 256 475 306 475 l 181 475 l 181 104 "},"n":{"x_min":49,"x_max":455,"ha":508,"o":"m 158 618 l 162 618 q 302 693 211 693 q 416 643 378 693 q 455 515 455 594 l 455 0 l 344 0 l 344 486 q 323 556 344 530 q 256 582 302 582 q 184 552 212 582 q 157 475 157 523 l 157 0 l 49 0 l 49 686 l 158 686 l 158 618 "},"ʹ":{"x_min":65.28125,"x_max":327.796875,"ha":319,"o":"m 327 930 l 136 561 l 65 586 l 202 964 l 327 930 "},"↳":{"x_min":156,"x_max":1122.453125,"ha":1167,"o":"m 246 490 l 955 490 l 752 691 l 816 753 l 1122 445 l 816 139 l 752 201 l 955 402 l 156 401 l 156 961 l 246 961 l 246 490 "},"p":{"x_min":46,"x_max":455,"ha":505,"o":"m 284 696 q 328 691 302 696 q 379 668 355 686 q 422 618 403 651 q 449 527 442 584 q 454 440 453 486 q 455 354 455 394 q 451 213 455 279 q 430 98 448 147 q 377 21 413 49 q 276 -7 341 -7 q 207 7 236 -7 q 159 49 178 22 l 156 49 l 156 -267 l 46 -267 l 46 688 l 156 688 l 156 634 l 159 633 q 205 680 181 664 q 284 696 230 696 m 247 589 q 178 558 201 589 q 155 480 155 527 l 155 208 q 177 130 155 159 q 247 101 199 101 q 296 112 277 101 q 325 153 315 124 q 339 230 335 183 q 344 349 344 278 q 341 459 344 413 q 330 533 339 504 q 301 575 320 562 q 247 589 281 589 "},"‡":{"x_min":15.265625,"x_max":481.734375,"ha":497,"o":"m 200 553 l 15 553 l 15 650 l 200 650 l 200 939 l 297 939 l 297 650 l 481 650 l 481 553 l 297 553 l 297 221 l 481 221 l 481 124 l 297 124 l 297 -219 l 200 -219 l 200 124 l 15 124 l 15 221 l 200 221 l 200 553 "},"⁴":{"x_min":14.65625,"x_max":328.828125,"ha":343,"o":"m 283 599 l 283 513 l 198 513 l 198 599 l 14 599 l 14 669 l 145 1090 l 231 1090 l 102 674 l 198 674 l 198 830 l 283 830 l 283 674 l 328 674 l 328 599 l 283 599 "},"Ю":{"x_min":73,"x_max":724,"ha":789,"o":"m 724 259 q 674 60 724 131 q 507 -10 624 -10 q 410 7 450 -10 q 344 56 369 24 q 306 131 318 87 q 295 227 295 174 l 295 446 l 183 446 l 183 0 l 73 0 l 73 967 l 183 967 l 183 542 l 295 542 l 295 704 q 303 804 295 755 q 335 891 311 852 q 400 952 358 929 q 507 975 442 975 q 618 954 575 975 q 684 898 661 934 q 715 813 707 862 q 724 706 724 765 l 724 259 m 614 724 q 611 775 614 749 q 597 823 608 801 q 564 859 586 844 q 507 874 543 874 q 446 853 466 874 q 415 806 425 833 q 404 747 405 778 q 403 695 403 716 l 403 226 q 406 182 403 206 q 421 138 409 158 q 452 104 432 117 q 505 91 472 91 q 559 104 539 91 q 592 140 580 118 q 609 189 604 161 q 614 246 614 217 l 614 724 "},"S":{"x_min":46,"x_max":500,"ha":547,"o":"m 500 263 q 488 151 500 201 q 449 65 476 101 q 379 9 422 28 q 272 -10 336 -10 q 170 6 214 -10 q 100 53 127 23 q 59 123 72 83 q 46 211 46 164 l 156 233 q 161 181 156 205 q 180 137 167 157 q 216 107 193 118 q 272 96 239 96 q 338 109 314 96 q 374 145 362 122 q 389 198 386 168 q 392 262 392 229 q 387 332 392 305 q 369 379 383 359 q 330 415 355 400 q 261 448 304 430 q 152 507 193 477 q 89 570 111 537 q 59 639 66 602 q 53 720 53 676 q 66 822 53 776 q 109 903 80 869 q 180 956 137 937 q 280 975 223 975 q 385 955 343 975 q 453 904 427 936 q 489 836 479 873 q 500 762 500 798 l 392 734 q 365 835 392 800 q 275 871 339 871 q 217 857 239 871 q 183 821 196 843 q 167 773 171 800 q 163 722 163 747 q 166 668 163 691 q 185 625 169 645 q 230 586 200 605 q 314 545 260 566 q 413 493 376 520 q 469 433 450 466 q 494 358 488 399 q 500 263 500 316 "},"/":{"x_min":8.328125,"x_max":350.03125,"ha":356,"o":"m 91 -58 l 8 -58 l 266 1007 l 350 1007 l 91 -58 "},"y":{"x_min":6.9375,"x_max":462.53125,"ha":467,"o":"m 265 -114 q 212 -226 248 -184 q 102 -269 176 -269 l 61 -269 l 61 -175 l 88 -175 q 145 -149 127 -175 q 177 -54 162 -123 l 188 -5 l 6 686 l 123 686 l 181 423 l 237 186 l 241 186 l 293 426 l 350 686 l 462 686 l 265 -114 "},"ђ":{"x_min":-0.28125,"x_max":480,"ha":537,"o":"m 318 683 q 413 655 378 683 q 463 578 447 627 q 472 532 468 562 q 477 467 475 502 q 479 393 478 431 q 480 322 480 355 q 479 261 480 295 q 476 193 478 227 q 471 131 474 159 q 464 86 468 103 q 443 37 457 61 q 407 -3 429 14 q 353 -32 384 -21 q 279 -44 322 -44 l 259 -44 l 259 54 l 270 54 q 327 71 307 54 q 357 119 347 89 q 362 153 361 132 q 365 198 364 173 q 367 249 367 223 q 367 298 367 275 q 364 431 367 373 q 355 517 362 488 q 331 556 348 541 q 276 572 313 572 q 196 535 220 572 q 173 449 173 499 l 173 0 l 65 0 l 65 799 l 0 799 l 0 884 l 65 884 l 65 1008 l 174 1008 l 174 884 l 366 884 l 366 799 l 174 799 l 174 603 l 179 603 q 233 659 197 635 q 318 683 269 683 "},"⇤":{"x_min":104,"x_max":1133.421875,"ha":1167,"o":"m 104 144 l 104 749 l 194 749 l 194 144 l 104 144 m 1133 490 l 1133 401 l 448 402 l 651 201 l 587 139 l 281 445 l 587 754 l 651 691 l 448 490 l 1133 490 "},"g":{"x_min":43,"x_max":456,"ha":514,"o":"m 343 65 q 282 10 322 27 q 209 -7 241 -7 q 119 17 152 -7 q 69 82 86 41 q 47 176 52 123 q 43 287 43 229 q 43 403 43 347 q 50 526 43 460 q 75 617 55 583 q 120 667 95 650 q 171 690 145 685 q 216 695 197 695 q 295 679 270 695 q 343 632 320 663 l 346 633 l 346 686 l 456 686 l 456 -51 q 447 -133 456 -92 q 417 -205 439 -173 q 355 -256 394 -237 q 251 -276 315 -276 q 111 -231 160 -276 q 60 -104 62 -186 l 169 -83 q 189 -150 171 -125 q 257 -175 208 -175 q 298 -165 280 -175 q 325 -139 315 -155 q 341 -104 336 -123 q 346 -63 346 -84 l 346 65 l 343 65 m 253 588 q 199 574 219 588 q 169 532 180 561 q 156 458 159 503 q 154 348 154 412 q 156 235 154 282 q 167 158 158 188 q 196 113 176 127 q 253 100 216 100 q 319 129 292 100 q 347 198 347 158 l 347 479 q 323 557 347 526 q 253 588 299 588 "},"–":{"x_min":27.78125,"x_max":666.71875,"ha":695,"o":"m 27 320 l 27 424 l 666 424 l 666 320 l 27 320 "},"б":{"x_min":46,"x_max":461,"ha":503,"o":"m 276 667 q 343 657 315 667 q 389 633 370 648 q 420 598 408 618 q 441 555 433 578 q 451 505 448 536 q 457 440 455 475 q 460 369 459 405 q 461 302 461 333 q 459 236 461 263 q 454 167 458 208 q 426 77 447 112 q 375 23 405 42 q 311 -3 345 3 q 243 -10 276 -10 q 168 1 200 -10 q 115 30 137 12 q 79 72 93 48 q 58 122 65 96 q 48 210 50 153 q 46 320 46 267 l 46 458 q 55 645 46 568 q 83 774 64 722 q 134 859 102 826 q 211 914 165 891 q 259 935 237 926 q 302 952 280 944 q 350 970 325 961 q 408 996 375 980 l 445 918 q 391 891 413 901 q 348 873 369 882 q 303 854 327 865 q 244 823 279 843 q 176 737 195 797 q 157 608 157 677 l 159 608 q 222 655 187 644 q 276 667 256 667 m 255 568 q 204 554 227 568 q 167 508 180 540 q 156 431 156 482 q 154 297 155 380 q 155 215 154 251 q 164 156 156 179 q 196 108 173 125 q 255 91 219 91 q 306 109 284 91 q 340 154 329 127 q 350 217 347 170 q 354 322 354 264 q 353 365 354 340 q 351 416 352 390 q 349 464 351 441 q 342 500 347 487 q 255 568 323 568 "},"J":{"x_min":7.140625,"x_max":413,"ha":505,"o":"m 413 967 l 413 247 q 358 55 413 120 q 190 -10 303 -10 q 83 12 130 -10 q 7 82 36 34 l 87 147 q 131 108 102 125 q 189 91 159 91 q 276 130 250 91 q 303 232 303 170 l 303 967 l 413 967 "},"у":{"x_min":6.9375,"x_max":462.53125,"ha":467,"o":"m 265 -114 q 212 -226 248 -184 q 102 -269 176 -269 l 61 -269 l 61 -175 l 88 -175 q 145 -149 127 -175 q 177 -54 162 -123 l 188 -5 l 6 686 l 123 686 l 181 423 l 237 186 l 241 186 l 293 426 l 350 686 l 462 686 l 265 -114 "},"⁽":{"x_min":25,"x_max":194.28125,"ha":190,"o":"m 147 418 q 61 573 98 484 q 25 766 25 662 q 61 955 25 870 q 148 1108 98 1039 l 194 1088 q 128 935 152 1019 q 104 769 104 851 q 128 598 104 681 q 192 448 152 515 l 147 418 "},"Ј":{"x_min":-19.859375,"x_max":386,"ha":478,"o":"m 386 967 l 386 247 q 331 55 386 120 q 163 -10 276 -10 q 56 12 103 -10 q -19 82 9 34 l 60 147 q 104 108 75 125 q 162 91 132 91 q 249 130 223 91 q 276 232 276 170 l 276 967 l 386 967 "},"⇞":{"x_min":36.46875,"x_max":651.515625,"ha":674,"o":"m 389 522 l 541 522 l 541 433 l 389 433 l 389 328 l 541 328 l 541 239 l 389 239 l 389 0 l 299 0 l 299 239 l 146 239 l 146 328 l 299 328 l 299 433 l 146 433 l 146 522 l 299 522 l 299 797 l 98 600 l 36 664 l 343 970 l 651 664 l 589 600 l 389 797 l 389 522 "},"˘":{"x_min":65,"x_max":430.03125,"ha":501,"o":"m 155 958 q 163 929 156 944 q 182 900 170 913 q 210 879 193 887 q 248 871 227 871 q 287 879 270 871 q 317 900 305 887 q 336 929 330 913 q 342 958 342 944 l 430 958 q 416 901 427 931 q 382 847 405 872 q 327 805 360 822 q 248 789 293 789 q 161 805 196 789 q 105 847 127 822 q 74 901 84 872 q 65 958 65 931 l 155 958 "},"D":{"x_min":74,"x_max":519,"ha":587,"o":"m 298 967 q 434 937 384 967 q 503 836 484 907 q 519 691 519 778 q 519 484 519 605 q 519 282 519 365 q 500 143 519 200 q 417 30 474 61 q 286 0 359 0 l 74 0 l 74 967 l 298 967 m 408 725 q 380 828 408 791 q 282 866 352 866 l 184 866 l 184 101 l 282 101 q 378 138 349 101 q 408 245 408 175 l 408 725 "},"ґ":{"x_min":64,"x_max":421,"ha":449,"o":"m 175 589 l 175 0 l 64 0 l 64 686 l 322 686 l 322 846 l 421 846 l 421 589 l 175 589 "},"↑":{"x_min":36.46875,"x_max":651.90625,"ha":674,"o":"m 388 1 l 299 1 l 299 797 l 98 600 l 36 664 l 343 970 l 651 664 l 589 600 l 388 797 l 388 1 "},"ц":{"x_min":64,"x_max":514,"ha":535,"o":"m 468 686 l 468 104 l 514 104 l 514 -172 l 413 -172 l 413 0 l 64 0 l 64 686 l 177 686 l 177 104 l 357 104 l 357 686 l 468 686 "},"Л":{"x_min":-6.71875,"x_max":531,"ha":605,"o":"m 227 484 q 217 264 227 351 q 185 121 207 177 q 129 31 164 65 q 43 -28 94 -1 l -6 51 q 48 96 23 73 q 91 156 73 119 q 118 250 109 192 q 128 400 128 308 l 128 967 l 531 967 l 531 0 l 421 0 l 421 864 l 227 864 l 227 484 "},"$":{"x_min":32.28125,"x_max":486,"ha":528,"o":"m 486 263 q 475 156 486 205 q 441 72 465 107 q 380 16 418 37 q 288 -8 342 -4 l 288 -131 l 235 -131 l 235 -8 q 80 59 129 -1 q 32 210 32 120 l 142 232 q 161 144 142 184 q 235 96 180 105 l 235 453 q 132 511 171 482 q 72 572 93 539 q 45 641 51 605 q 39 720 39 677 q 86 893 39 824 q 235 973 134 962 l 235 1083 l 288 1083 l 288 973 q 382 949 344 970 q 443 898 420 928 q 476 832 466 869 q 486 762 486 796 l 378 734 q 357 827 378 792 q 288 869 336 862 l 288 549 q 393 494 354 523 q 453 432 433 466 q 479 357 473 399 q 486 263 486 316 m 378 262 q 375 324 378 299 q 362 368 372 349 q 335 400 353 387 q 288 430 317 414 l 288 96 q 337 116 319 100 q 364 153 355 131 q 375 203 373 175 q 378 262 378 231 m 149 721 q 151 676 149 696 q 161 639 153 656 q 187 606 169 621 q 235 574 204 591 l 235 867 q 190 847 207 862 q 164 812 173 832 q 152 767 155 791 q 149 721 149 744 "},"w":{"x_min":13.890625,"x_max":750.0625,"ha":764,"o":"m 595 0 l 483 0 l 436 208 l 383 467 l 377 467 l 327 218 l 279 0 l 168 0 l 13 686 l 129 686 l 177 437 l 226 173 l 230 173 l 277 440 l 327 686 l 440 686 l 486 447 l 536 169 l 540 169 l 587 441 l 634 686 l 750 686 l 595 0 "},"\\":{"x_min":15.28125,"x_max":272.25,"ha":292,"o":"m 188 -10 l 15 975 l 98 975 l 272 -10 l 188 -10 "},"о":{"x_min":46,"x_max":462,"ha":502,"o":"m 257 696 q 352 680 316 696 q 411 638 389 665 q 443 574 433 611 q 456 494 453 537 q 460 408 459 454 q 462 326 462 362 q 454 167 462 247 q 426 77 447 112 q 375 23 405 42 q 311 -3 345 3 q 243 -10 276 -10 q 168 1 200 -10 q 115 30 137 12 q 79 72 93 48 q 58 122 65 97 q 51 163 54 138 q 48 218 48 188 q 46 279 47 248 q 46 336 46 309 q 47 407 46 370 q 51 477 48 444 q 58 538 54 511 q 69 582 62 565 q 134 665 88 634 q 257 696 180 696 m 255 595 q 204 582 227 595 q 169 538 181 570 q 158 456 160 518 q 154 311 155 395 q 155 222 154 265 q 164 154 156 178 q 255 91 183 91 q 306 108 284 91 q 340 153 329 125 q 345 179 342 160 q 350 223 348 197 q 353 278 352 249 q 354 336 354 307 q 353 394 354 365 q 351 449 352 422 q 349 496 351 475 q 342 529 347 517 q 255 595 323 595 "},"Д":{"x_min":8,"x_max":605,"ha":623,"o":"m 105 -185 l 8 -185 l 8 88 l 49 95 q 81 126 67 106 q 105 180 95 147 q 121 264 116 213 q 130 386 127 315 l 146 967 l 557 967 l 557 94 l 605 94 l 605 -185 l 508 -185 l 508 0 l 105 0 l 105 -185 m 447 94 l 447 871 l 244 871 l 228 378 q 213 206 226 274 q 171 94 201 138 l 447 94 "},"ъ":{"x_min":22,"x_max":590,"ha":623,"o":"m 301 104 l 360 104 q 423 114 399 104 q 459 140 446 124 q 475 176 471 156 q 480 215 480 195 q 475 256 480 236 q 458 291 471 276 q 421 314 445 305 q 357 324 396 324 l 301 324 l 301 104 m 187 0 l 187 589 l 22 589 l 22 686 l 301 686 l 301 427 l 360 427 q 477 409 433 427 q 546 363 521 392 q 580 297 571 335 q 590 218 590 260 q 580 127 590 168 q 545 59 570 87 q 477 15 520 30 q 367 0 434 0 l 187 0 "},"₋":{"x_min":37.5,"x_max":284.75,"ha":314,"o":"m 37 79 l 37 148 l 284 148 l 284 79 l 37 79 "},"C":{"x_min":65,"x_max":501,"ha":534,"o":"m 283 975 q 447 914 396 975 q 498 754 498 853 l 388 735 q 365 836 389 798 q 282 874 340 874 q 227 858 248 874 q 195 820 207 843 q 179 769 183 797 q 175 716 175 741 l 175 228 q 179 183 175 207 q 195 138 183 159 q 227 104 207 118 q 280 91 247 91 q 360 124 335 91 q 388 229 386 157 l 501 210 q 444 48 498 106 q 283 -10 390 -10 q 119 51 173 -10 q 65 223 65 112 l 65 701 q 74 802 65 752 q 106 889 83 851 q 173 951 130 927 q 283 975 216 975 "},"!":{"x_min":103,"x_max":214,"ha":317,"o":"m 204 246 l 112 246 l 103 967 l 213 967 l 204 246 m 103 -1 l 103 110 l 214 110 l 214 -1 l 103 -1 "},"Й":{"x_min":69,"x_max":527,"ha":596,"o":"m 201 1168 q 209 1139 202 1154 q 228 1110 216 1123 q 256 1089 239 1097 q 294 1081 273 1081 q 333 1089 316 1081 q 363 1110 351 1097 q 382 1139 376 1123 q 388 1168 388 1154 l 476 1168 q 462 1111 473 1141 q 428 1057 451 1082 q 373 1015 406 1032 q 294 999 339 999 q 207 1015 242 999 q 151 1057 173 1032 q 120 1111 130 1082 q 111 1168 111 1141 l 201 1168 m 416 679 l 171 0 l 69 0 l 69 967 l 175 967 l 175 283 l 180 282 l 422 967 l 527 967 l 527 0 l 421 0 l 421 679 l 416 679 "},"X":{"x_min":12.5,"x_max":511.15625,"ha":524,"o":"m 395 -1 l 261 382 l 127 -1 l 12 -1 l 205 507 l 27 967 l 143 967 l 261 626 l 380 967 l 495 967 l 313 507 l 511 -1 l 395 -1 "},"Б":{"x_min":71,"x_max":513,"ha":549,"o":"m 181 104 l 258 104 q 336 118 307 104 q 381 158 365 133 q 401 219 396 184 q 406 292 406 254 q 401 363 406 330 q 381 420 397 395 q 335 460 365 445 q 256 475 306 475 l 181 475 l 181 104 m 181 578 l 260 578 q 388 557 339 578 q 465 498 437 536 q 503 409 493 461 q 513 297 513 358 q 502 174 513 229 q 464 80 492 119 q 389 20 436 41 q 268 0 342 0 l 71 0 l 71 967 l 461 967 l 461 864 l 181 864 l 181 578 "},"г":{"x_min":64,"x_max":420.84375,"ha":449,"o":"m 175 589 l 175 0 l 64 0 l 64 686 l 420 686 l 420 589 l 175 589 "},"х":{"x_min":8.328125,"x_max":454.203125,"ha":461,"o":"m 331 0 l 233 237 l 129 0 l 8 0 l 176 349 l 13 686 l 137 686 l 233 459 l 323 686 l 451 686 l 293 351 l 454 0 l 331 0 "},"}":{"x_min":28,"x_max":298.90625,"ha":319,"o":"m 28 -143 l 28 -69 l 54 -69 q 83 -57 72 -69 q 101 -29 94 -46 q 111 9 108 -12 q 114 51 114 31 l 114 233 q 123 308 114 276 q 146 362 132 340 q 173 397 159 385 q 198 413 187 408 l 198 417 q 173 433 187 421 q 146 467 159 444 q 123 522 132 489 q 114 599 114 554 l 114 774 q 111 816 114 794 q 101 855 108 838 q 83 883 94 872 q 54 895 72 895 l 28 895 l 28 970 l 89 970 q 175 929 140 970 q 210 819 210 889 l 210 629 q 214 564 210 596 q 228 509 218 533 q 255 469 239 485 q 298 448 272 453 l 298 378 q 228 322 246 371 q 210 200 210 273 l 210 5 q 175 -102 210 -62 q 89 -143 140 -143 l 28 -143 "},"‰":{"x_min":45,"x_max":1157,"ha":1201,"o":"m 803 110 q 762 23 803 53 q 669 -6 722 -6 q 619 1 643 -6 q 575 23 594 9 q 546 60 557 38 q 535 110 535 81 l 535 465 q 546 515 535 494 q 575 552 557 537 q 619 574 594 566 q 669 582 643 582 q 762 552 722 582 q 803 465 803 522 l 803 110 m 717 462 q 703 493 717 480 q 669 506 690 506 q 634 493 647 506 q 621 462 621 480 l 621 114 q 634 82 621 95 q 669 70 647 70 q 703 82 690 70 q 717 114 717 95 l 717 462 m 312 498 q 271 411 312 441 q 179 382 231 382 q 128 389 152 382 q 85 411 104 397 q 56 448 67 426 q 45 498 45 469 l 45 853 q 56 903 45 882 q 85 940 67 925 q 128 962 104 954 q 179 970 152 970 q 271 940 231 970 q 312 853 312 910 l 312 498 m 226 850 q 212 881 226 868 q 179 894 199 894 q 144 881 157 894 q 131 850 131 868 l 131 502 q 144 470 131 483 q 179 458 157 458 q 212 470 199 458 q 226 502 226 483 l 226 850 m 246 -24 l 175 -24 l 611 992 l 682 992 l 246 -24 m 1157 110 q 1116 23 1157 53 q 1023 -6 1076 -6 q 973 1 997 -6 q 929 23 948 9 q 900 60 911 38 q 889 110 889 81 l 889 465 q 900 515 889 494 q 929 552 911 537 q 973 574 948 566 q 1023 582 997 582 q 1116 552 1076 582 q 1157 465 1157 522 l 1157 110 m 1071 462 q 1057 493 1071 480 q 1023 506 1044 506 q 988 493 1001 506 q 975 462 975 480 l 975 114 q 988 82 975 95 q 1023 70 1001 70 q 1057 82 1044 70 q 1071 114 1071 95 l 1071 462 "},"Ч":{"x_min":56,"x_max":498,"ha":573,"o":"m 163 967 l 163 612 q 193 509 163 537 q 288 481 224 481 q 334 485 307 481 q 388 499 361 489 l 388 967 l 498 967 l 498 0 l 388 0 l 388 415 q 327 400 360 404 q 263 396 293 396 q 182 406 220 396 q 116 441 144 416 q 71 507 87 466 q 56 609 56 548 l 56 967 l 163 967 "},"↪":{"x_min":49,"x_max":1117.234375,"ha":1150,"o":"m 747 691 l 811 753 l 1117 445 l 811 139 l 747 201 l 950 402 l 288 401 q 107 466 165 401 q 49 640 49 531 l 49 745 q 60 833 49 792 q 98 904 72 874 q 166 951 124 934 q 270 968 208 968 l 380 968 l 380 882 l 277 882 q 170 847 203 882 q 138 751 138 813 l 138 640 q 144 581 138 608 q 168 533 151 553 q 211 501 185 513 q 276 490 238 490 l 950 490 l 747 691 "},"N":{"x_min":69,"x_max":556,"ha":625,"o":"m 179 661 l 179 0 l 69 0 l 69 967 l 173 967 l 373 476 l 440 300 l 446 301 l 446 967 l 556 967 l 556 0 l 453 0 l 252 486 l 183 661 l 179 661 "},"—":{"x_min":27.78125,"x_max":1361.21875,"ha":1389,"o":"m 27 320 l 27 424 l 1361 424 l 1361 320 l 27 320 "},"2":{"x_min":68,"x_max":465,"ha":528,"o":"m 265 871 q 198 831 218 869 q 178 715 178 793 l 178 707 l 68 726 l 68 732 q 79 832 68 787 q 114 908 90 876 q 176 957 138 940 q 267 975 215 975 q 359 959 322 975 q 420 916 396 944 q 454 849 444 888 q 465 761 465 809 q 412 538 465 645 l 195 101 l 458 101 l 458 0 l 71 0 l 71 95 l 321 597 q 346 676 341 634 q 351 759 351 718 q 348 799 351 779 q 337 835 345 819 q 311 861 328 851 q 265 871 294 871 "},"⁄":{"x_min":-108.34375,"x_max":398.640625,"ha":267,"o":"m -37 -24 l -108 -24 l 327 992 l 398 992 l -37 -24 "},"М":{"x_min":74,"x_max":710,"ha":784,"o":"m 593 669 l 516 469 l 417 234 l 365 234 l 266 469 l 190 669 l 184 669 l 184 0 l 74 0 l 74 967 l 185 967 l 300 665 l 389 429 l 393 429 l 484 672 l 597 967 l 710 967 l 710 0 l 600 0 l 600 669 l 593 669 "},"ь":{"x_min":61,"x_max":464,"ha":493,"o":"m 175 104 l 234 104 q 297 114 273 104 q 333 140 320 124 q 349 176 345 156 q 354 215 354 195 q 349 256 354 236 q 332 291 345 276 q 295 314 319 305 q 231 324 270 324 l 175 324 l 175 104 m 61 0 l 61 686 l 175 686 l 175 427 l 234 427 q 351 409 307 427 q 420 363 395 392 q 454 297 445 335 q 464 218 464 260 q 454 127 464 168 q 419 59 444 87 q 351 15 394 30 q 241 0 308 0 l 61 0 "},"˜":{"x_min":50,"x_max":451.421875,"ha":503,"o":"m 451 907 q 391 830 425 858 q 327 803 358 803 q 286 811 306 803 q 247 828 266 819 q 212 845 229 837 q 179 854 195 854 q 105 804 140 854 l 50 838 q 71 874 58 856 q 100 908 84 892 q 133 933 115 923 q 170 943 151 943 q 209 934 191 943 q 246 917 227 926 q 284 899 265 907 q 325 891 304 891 q 360 904 344 891 q 397 945 376 917 l 451 907 "},"ˇ":{"x_min":44.453125,"x_max":461.140625,"ha":501,"o":"m 413 1000 l 461 958 l 290 768 l 225 768 l 44 961 l 91 1000 l 252 869 l 413 1000 "},"Ў":{"x_min":4.171875,"x_max":497.265625,"ha":504,"o":"m 263 426 l 391 967 l 497 967 l 302 223 q 258 95 281 141 q 209 25 234 48 q 158 -3 184 2 q 104 -11 131 -9 l 51 -11 l 51 75 l 101 75 q 156 104 130 75 q 198 198 181 134 l 213 256 l 4 965 l 112 965 l 258 424 l 263 426 m 171 1152 q 179 1123 172 1138 q 198 1094 186 1107 q 226 1073 209 1081 q 264 1065 243 1065 q 303 1073 286 1065 q 333 1094 321 1081 q 352 1123 346 1107 q 358 1152 358 1138 l 446 1152 q 432 1095 443 1125 q 398 1041 421 1066 q 343 999 376 1016 q 264 983 309 983 q 177 999 212 983 q 121 1041 143 1016 q 90 1095 100 1066 q 81 1152 81 1125 l 171 1152 "},"в":{"x_min":64,"x_max":474,"ha":527,"o":"m 64 0 l 64 686 l 247 686 q 413 636 360 686 q 466 498 466 587 q 449 418 466 449 q 398 363 433 387 l 400 363 q 457 303 441 344 q 474 208 474 262 q 417 49 474 99 q 241 0 360 0 l 64 0 m 368 216 q 344 289 368 263 q 251 315 320 315 l 177 315 l 177 104 l 254 104 q 314 112 291 104 q 348 135 336 120 q 364 170 361 149 q 368 216 368 191 m 356 500 q 330 566 356 544 q 242 589 304 589 l 177 589 l 177 407 l 240 407 q 329 430 303 407 q 356 500 356 454 "},"€":{"x_min":24.546875,"x_max":503,"ha":528,"o":"m 24 443 l 69 443 l 69 531 l 24 531 l 24 596 l 69 596 l 69 701 q 78 802 69 752 q 110 889 87 851 q 177 951 134 927 q 287 975 220 975 q 445 922 391 975 q 500 782 498 869 l 390 764 q 285 874 384 874 q 231 858 252 874 q 199 820 210 843 q 183 769 187 797 q 179 716 179 741 l 179 596 l 376 596 l 376 531 l 179 531 l 179 443 l 376 443 l 376 375 l 179 375 l 179 228 q 183 183 179 207 q 199 139 187 159 q 231 104 210 118 q 284 91 251 91 q 358 118 333 91 q 390 203 384 145 l 503 186 q 441 41 494 93 q 287 -10 387 -10 q 123 51 177 -10 q 69 223 69 112 l 69 375 l 24 375 l 24 443 "},"С":{"x_min":65,"x_max":501,"ha":534,"o":"m 283 975 q 447 914 396 975 q 498 754 498 853 l 388 735 q 365 836 389 798 q 282 874 340 874 q 227 858 248 874 q 195 820 207 843 q 179 769 183 797 q 175 716 175 741 l 175 228 q 179 183 175 207 q 195 138 183 159 q 227 104 207 118 q 280 91 247 91 q 360 124 335 91 q 388 229 386 157 l 501 210 q 444 48 498 106 q 283 -10 390 -10 q 119 51 173 -10 q 65 223 65 112 l 65 701 q 74 802 65 752 q 106 889 83 851 q 173 951 130 927 q 283 975 216 975 "},"њ":{"x_min":68,"x_max":753,"ha":792,"o":"m 464 104 l 523 104 q 586 114 562 104 q 622 140 609 124 q 638 176 634 156 q 643 215 643 195 q 638 252 643 234 q 621 282 634 269 q 584 302 608 294 q 520 310 559 310 l 464 310 l 464 104 m 350 0 l 350 310 l 181 310 l 181 0 l 68 0 l 68 686 l 181 686 l 181 416 l 350 416 l 350 686 l 464 686 l 464 416 l 523 416 q 640 400 596 416 q 709 356 684 384 q 743 293 734 329 q 753 218 753 257 q 743 128 753 168 q 708 59 733 87 q 640 15 683 30 q 530 0 597 0 l 350 0 "},"s":{"x_min":41,"x_max":432.90625,"ha":470,"o":"m 154 193 q 173 118 152 146 q 234 91 194 91 q 305 114 286 91 q 325 189 325 138 q 320 230 325 213 q 305 261 316 248 q 274 285 294 274 q 223 309 255 296 q 136 351 170 328 q 83 398 102 373 q 57 451 64 423 q 51 509 51 479 q 98 643 51 591 q 242 696 146 696 q 389 645 345 696 q 432 507 432 595 l 319 492 q 299 570 321 546 q 241 595 277 595 q 199 587 216 595 q 173 567 182 579 q 161 539 164 554 q 158 510 158 524 q 162 478 158 493 q 178 451 166 464 q 213 425 191 437 q 273 400 235 412 q 355 360 324 382 q 403 313 386 339 q 425 257 420 287 q 430 191 430 227 q 384 44 430 99 q 239 -10 339 -10 q 91 37 139 -10 q 41 175 43 85 l 154 193 "},"?":{"x_min":49,"x_max":485,"ha":515,"o":"m 485 740 q 482 678 485 704 q 472 630 479 652 q 453 585 465 608 q 423 532 441 562 l 359 422 q 340 384 348 404 q 333 341 333 365 l 333 245 l 225 245 l 225 361 q 233 415 225 389 q 256 465 241 441 q 316 561 294 525 q 351 623 338 597 q 367 673 363 650 q 372 733 372 697 q 367 786 372 761 q 351 830 363 811 q 319 859 340 848 q 265 871 298 871 q 190 840 220 871 q 160 739 160 809 l 49 751 q 66 850 49 808 q 112 920 83 893 q 181 961 142 948 q 265 975 221 975 q 433 913 382 975 q 485 740 485 852 m 224 0 l 224 111 l 332 111 l 332 0 l 224 0 "},"c":{"x_min":44,"x_max":443,"ha":471,"o":"m 240 -10 q 165 1 197 -10 q 112 30 134 12 q 76 72 89 48 q 56 122 63 97 q 49 163 52 138 q 46 218 46 188 q 44 279 45 248 q 44 336 44 309 q 45 407 44 370 q 48 477 46 444 q 55 538 50 511 q 66 582 59 565 q 130 665 85 634 q 252 696 174 696 q 399 640 355 696 q 443 492 443 585 l 329 476 q 307 567 329 539 q 248 595 285 595 q 200 582 220 595 q 167 538 179 570 q 156 456 158 517 q 152 312 153 395 q 153 223 152 266 q 162 156 154 179 q 191 108 171 125 q 248 91 212 91 q 310 121 291 91 q 329 204 329 152 l 442 185 q 391 40 439 91 q 240 -10 343 -10 "},"₆":{"x_min":38,"x_max":305,"ha":343,"o":"m 172 -131 q 121 -123 145 -131 q 78 -101 97 -115 q 49 -64 60 -86 q 38 -14 38 -43 l 38 78 q 44 142 38 117 q 57 186 50 166 q 116 319 85 247 q 173 453 147 391 l 262 453 q 190 285 213 342 q 162 211 168 229 q 179 215 170 214 q 197 217 187 217 q 282 183 259 217 q 305 102 305 150 l 305 -14 q 264 -101 305 -71 q 172 -131 224 -131 m 219 103 q 205 133 219 122 q 173 145 192 145 q 135 128 146 145 q 124 92 124 111 l 124 -11 q 137 -43 124 -30 q 172 -57 150 -57 q 205 -43 192 -57 q 219 -11 219 -30 l 219 103 "},"н":{"x_min":64,"x_max":470,"ha":534,"o":"m 357 0 l 357 304 l 177 304 l 177 0 l 64 0 l 64 686 l 177 686 l 177 397 l 357 397 l 357 686 l 470 686 l 470 0 l 357 0 "},"•":{"x_min":114,"x_max":460,"ha":571,"o":"m 460 369 q 446 301 460 332 q 408 247 432 270 q 353 210 384 224 q 286 197 322 197 q 218 210 250 197 q 164 247 187 224 q 127 301 140 270 q 114 369 114 332 q 127 435 114 403 q 164 490 140 467 q 218 527 187 513 q 286 541 250 541 q 353 527 322 541 q 408 490 384 513 q 446 435 432 467 q 460 369 460 403 "},"(":{"x_min":48,"x_max":284.515625,"ha":292,"o":"m 234 -153 q 162 -33 197 -97 q 103 102 128 30 q 63 254 78 174 q 48 422 48 334 q 62 591 48 511 q 102 742 77 670 q 160 877 127 814 q 231 996 194 940 l 284 970 q 183 711 219 855 q 147 427 147 568 q 183 133 147 276 q 283 -122 220 -9 l 234 -153 l 234 -153 "},"м":{"x_min":63,"x_max":635,"ha":698,"o":"m 522 0 l 522 461 l 519 461 l 452 317 l 372 161 l 322 161 l 242 315 l 179 448 l 176 448 l 176 0 l 63 0 l 63 686 l 172 686 l 272 476 l 347 327 l 350 327 l 422 476 l 526 686 l 635 686 l 635 0 l 522 0 "},":":{"x_min":72,"x_max":193,"ha":268,"o":"m 72 417 l 72 543 l 193 543 l 193 417 l 72 417 m 72 0 l 72 126 l 193 126 l 193 0 l 72 0 "},"з":{"x_min":12.046875,"x_max":421,"ha":476,"o":"m 348 354 q 408 295 396 338 q 421 197 421 251 q 403 99 421 138 q 356 37 386 61 q 289 3 327 13 q 209 -7 251 -7 q 73 34 125 -7 q 12 169 20 76 l 119 186 q 144 114 121 136 q 212 92 167 92 q 278 114 248 92 q 308 198 308 137 q 291 276 308 245 q 231 307 274 307 l 170 307 l 170 403 l 234 403 q 291 427 274 403 q 308 499 308 452 q 286 565 308 539 q 217 592 264 592 q 126 498 131 592 l 21 521 q 81 648 28 604 q 217 693 134 693 q 367 647 313 693 q 421 505 421 601 q 417 458 421 481 q 405 415 414 434 q 383 380 397 395 q 348 356 369 365 l 348 354 "},"⁹":{"x_min":38,"x_max":305,"ha":343,"o":"m 82 512 q 150 672 126 612 q 180 753 174 733 q 145 750 165 750 q 61 782 85 750 q 38 863 38 815 l 38 982 q 49 1030 38 1009 q 78 1066 60 1051 q 121 1088 97 1080 q 172 1096 145 1096 q 222 1088 198 1096 q 264 1066 246 1080 q 293 1030 282 1051 q 305 981 305 1009 l 305 886 q 299 823 305 848 q 285 778 293 798 q 227 645 257 717 q 170 512 197 573 l 82 512 m 124 863 q 137 833 124 845 q 170 822 150 822 q 208 840 198 822 q 219 879 219 859 l 219 977 q 205 1009 219 997 q 172 1021 192 1021 q 137 1009 150 1021 q 124 977 124 997 l 124 863 "},"Ґ":{"x_min":74,"x_max":465,"ha":497,"o":"m 184 864 l 184 0 l 74 0 l 74 967 l 366 967 l 365 1138 l 465 1138 l 465 864 l 184 864 "},"і":{"x_min":61,"x_max":172,"ha":236,"o":"m 61 856 l 61 967 l 172 967 l 172 856 l 61 856 m 61 0 l 61 686 l 172 686 l 172 0 l 61 0 "},"V":{"x_min":31.953125,"x_max":516.703125,"ha":549,"o":"m 331 -1 l 212 -1 l 31 967 l 144 967 l 216 558 l 270 222 l 275 222 l 330 561 l 404 967 l 516 967 l 331 -1 "},"₫":{"x_min":81,"x_max":485.125,"ha":528,"o":"m 211 872 l 325 872 l 325 963 l 424 963 l 424 872 l 485 872 l 485 798 l 424 798 l 424 174 l 325 174 l 325 210 q 286 179 308 191 q 224 168 264 168 q 150 186 178 168 q 106 237 122 204 q 85 320 90 270 q 81 432 81 369 q 84 544 81 491 q 103 636 87 597 q 149 698 118 675 q 234 721 180 721 q 325 683 290 721 l 325 798 l 211 798 l 211 872 m 254 262 q 308 283 290 262 q 326 339 326 305 l 326 549 q 309 605 326 586 q 254 625 292 625 q 218 615 231 625 q 195 586 204 606 q 184 529 187 565 q 182 440 182 494 q 193 303 182 344 q 254 262 204 262 m 95 96 l 434 96 l 434 0 l 95 0 l 95 96 "},"У":{"x_min":4.171875,"x_max":497.265625,"ha":504,"o":"m 263 426 l 391 967 l 497 967 l 302 223 q 258 95 281 141 q 209 25 234 48 q 158 -3 184 2 q 104 -11 131 -9 l 51 -11 l 51 75 l 101 75 q 156 104 130 75 q 198 198 181 134 l 213 256 l 4 965 l 112 965 l 258 424 l 263 426 "},"@":{"x_min":83,"x_max":961,"ha":1044,"o":"m 675 359 q 693 298 675 319 q 736 278 711 278 q 789 287 765 278 q 831 325 813 297 q 858 403 848 354 q 868 532 868 452 q 843 684 868 616 q 776 797 819 751 q 672 868 733 844 q 541 893 612 893 q 375 859 445 893 q 260 768 305 826 q 194 632 216 711 q 173 465 173 554 q 195 286 173 366 q 265 149 218 206 q 381 60 311 91 q 543 29 450 29 q 664 40 611 29 q 778 88 717 52 l 813 9 q 687 -36 753 -18 q 550 -54 621 -54 q 354 -20 441 -54 q 207 77 267 12 q 114 240 146 143 q 83 465 83 337 q 112 673 83 578 q 200 835 142 767 q 342 939 258 902 q 537 976 427 976 q 720 942 641 976 q 853 850 799 909 q 933 709 906 791 q 961 531 961 627 q 942 371 961 436 q 893 267 924 307 q 820 210 862 228 q 730 193 779 193 q 701 198 719 193 q 665 213 683 203 q 632 240 647 223 q 612 279 618 257 l 611 278 q 554 226 594 247 q 468 206 514 206 q 408 219 431 206 q 370 255 384 233 q 349 306 355 278 q 343 364 343 335 q 350 425 343 394 q 376 482 358 457 q 423 523 394 507 q 495 539 452 539 l 585 539 l 585 611 q 567 662 585 643 q 513 681 550 681 q 467 667 489 681 q 441 625 445 654 l 354 647 q 413 732 368 701 q 517 763 459 763 q 630 729 585 763 q 675 612 675 696 l 675 359 m 585 463 l 519 463 q 458 442 485 463 q 431 368 431 422 q 449 312 431 335 q 508 290 468 290 q 565 315 546 290 q 585 378 585 339 l 585 463 "},"i":{"x_min":61,"x_max":172,"ha":236,"o":"m 61 856 l 61 967 l 172 967 l 172 856 l 61 856 m 61 0 l 61 686 l 172 686 l 172 0 l 61 0 "},"ќ":{"x_min":48,"x_max":505.25,"ha":521,"o":"m 187 795 l 281 1029 l 380 994 l 247 772 l 187 795 m 48 0 l 48 685 l 158 685 l 158 388 l 205 388 q 242 390 223 388 q 279 403 262 393 q 311 434 296 414 q 334 487 326 454 l 387 684 l 492 684 l 438 486 q 401 402 424 436 q 342 357 378 368 q 410 310 388 346 q 445 222 431 273 l 505 0 l 396 0 l 349 189 q 328 243 341 222 q 299 276 316 265 q 262 291 283 287 q 220 296 242 296 l 158 296 l 158 0 l 48 0 "},"⁶":{"x_min":38,"x_max":305,"ha":343,"o":"m 172 507 q 121 514 145 507 q 78 536 97 522 q 49 572 60 551 q 38 623 38 594 l 38 716 q 44 779 38 755 q 57 823 50 804 q 116 956 85 884 q 173 1090 147 1028 l 262 1090 q 190 922 213 979 q 162 848 168 866 q 179 852 170 851 q 197 854 187 854 q 282 820 259 854 q 305 740 305 787 l 305 623 q 264 536 305 566 q 172 507 224 507 m 219 740 q 205 770 219 759 q 173 782 192 782 q 135 765 146 782 q 124 729 124 748 l 124 626 q 137 594 124 607 q 172 581 150 581 q 205 594 192 581 q 219 626 219 607 l 219 740 "},"ё":{"x_min":43,"x_max":447,"ha":496,"o":"m 249 91 q 310 118 290 91 q 333 193 330 145 l 446 172 q 391 37 440 84 q 241 -10 341 -10 q 165 1 197 -10 q 111 32 133 13 q 75 74 88 51 q 56 122 62 98 q 49 163 52 138 q 45 218 47 188 q 43 279 44 248 q 43 336 43 309 q 43 406 43 370 q 47 473 44 441 q 54 532 49 505 q 65 577 58 559 q 129 664 84 632 q 252 696 174 696 q 401 638 355 696 q 447 481 447 581 l 447 312 l 153 312 q 155 221 153 266 q 164 153 157 177 q 249 91 183 91 m 336 401 l 336 459 q 332 510 336 486 q 319 552 329 534 q 292 581 309 571 q 247 592 274 592 q 201 580 222 592 q 167 536 180 568 q 158 483 160 516 q 154 401 155 449 l 336 401 m 311 828 l 311 939 l 405 939 l 405 828 l 311 828 m 97 828 l 97 939 l 193 939 l 193 828 l 97 828 "},"m":{"x_min":67,"x_max":747,"ha":814,"o":"m 747 0 l 637 0 l 637 486 q 614 556 637 530 q 552 582 592 582 q 488 555 515 582 q 461 484 461 529 l 461 0 l 351 0 l 351 486 q 328 556 351 530 q 266 582 306 582 q 200 552 226 582 q 175 475 175 523 l 175 0 l 67 0 l 67 686 l 176 686 l 176 618 l 180 618 q 234 673 204 654 q 308 693 264 693 q 389 672 356 693 q 440 616 422 652 q 508 672 472 651 q 594 693 544 693 q 708 643 670 693 q 747 515 747 594 l 747 0 "},"Е":{"x_min":73,"x_max":487.1875,"ha":508,"o":"m 73 0 l 73 967 l 487 967 l 487 866 l 183 866 l 183 542 l 446 542 l 446 441 l 183 441 l 183 101 l 487 101 l 487 0 l 73 0 "},"Э":{"x_min":30.65625,"x_max":465,"ha":537,"o":"m 143 204 q 249 89 149 89 q 302 102 282 89 q 334 138 323 116 q 350 184 346 159 q 355 229 355 208 l 355 442 l 132 442 l 132 549 l 355 549 l 355 729 q 330 834 355 794 q 244 874 306 874 q 168 839 193 874 q 139 751 143 804 l 30 776 q 93 921 40 868 q 251 975 147 975 q 363 952 320 975 q 428 891 405 929 q 458 808 451 854 q 465 716 465 762 l 465 223 q 410 51 465 112 q 246 -10 356 -10 q 93 40 146 -10 q 31 182 41 90 l 143 204 "},"⁵":{"x_min":34.640625,"x_max":303,"ha":343,"o":"m 303 633 q 266 533 303 562 q 171 504 229 504 q 104 515 131 504 q 61 545 77 526 q 38 591 45 565 q 35 650 32 618 l 123 659 q 130 600 118 622 q 173 578 141 578 q 217 632 217 578 l 217 779 q 172 820 217 820 q 118 789 133 820 l 47 789 l 47 1092 l 303 1092 l 303 1021 l 123 1021 l 123 872 l 127 872 q 194 889 156 889 q 276 860 249 889 q 303 788 303 832 l 303 633 "},"ю":{"x_min":49,"x_max":640,"ha":682,"o":"m 445 692 q 535 676 500 692 q 590 634 570 661 q 621 570 611 607 q 634 491 631 533 q 638 406 637 451 q 640 325 640 361 q 638 246 640 286 q 633 166 637 206 q 606 77 627 112 q 557 23 585 42 q 495 -3 528 3 q 431 -10 462 -10 q 360 1 391 -10 q 309 30 330 12 q 275 72 288 48 q 256 121 262 96 q 246 201 249 149 q 244 304 244 253 l 160 304 l 160 0 l 49 0 l 49 686 l 160 686 l 160 397 l 244 397 q 250 502 246 452 q 264 577 255 551 q 327 661 282 630 q 445 692 371 692 m 442 591 q 396 578 417 591 q 363 534 374 566 q 353 453 355 514 q 350 310 351 392 q 350 221 350 264 q 358 154 351 178 q 442 91 376 91 q 492 108 470 91 q 523 153 513 125 q 528 179 526 160 q 530 222 530 197 q 532 277 531 247 q 533 335 533 306 q 533 392 533 363 q 531 447 533 421 q 528 493 530 472 q 523 525 527 513 q 442 591 506 591 "},"⇟":{"x_min":36.46875,"x_max":651.515625,"ha":674,"o":"m 387 168 l 589 369 l 651 305 l 343 0 l 36 305 l 98 369 l 300 167 l 299 447 l 146 447 l 146 536 l 299 536 l 299 642 l 146 642 l 146 731 l 299 731 l 299 970 l 389 970 l 389 731 l 541 731 l 541 642 l 389 642 l 389 536 l 541 536 l 541 447 l 389 447 l 387 168 "},"⇥":{"x_min":105.5625,"x_max":1135,"ha":1167,"o":"m 1045 144 l 1045 749 l 1135 749 l 1135 144 l 1045 144 m 790 490 l 587 691 l 651 754 l 957 445 l 651 139 l 587 201 l 790 402 l 105 401 l 105 490 l 790 490 "},"K":{"x_min":73,"x_max":563.59375,"ha":575,"o":"m 452 0 l 277 464 l 183 280 l 183 0 l 73 0 l 73 967 l 183 967 l 183 484 l 185 484 l 419 967 l 528 967 l 341 584 l 563 0 l 452 0 "},"7":{"x_min":64,"x_max":462.703125,"ha":528,"o":"m 214 0 l 108 0 l 351 868 l 160 868 l 160 753 l 64 753 l 64 967 l 462 967 l 462 876 l 214 0 "},"п":{"x_min":67,"x_max":473,"ha":538,"o":"m 363 0 l 363 589 l 177 589 l 177 0 l 67 0 l 67 686 l 473 686 l 473 0 l 363 0 "},"⁰":{"x_min":38,"x_max":305,"ha":343,"o":"m 305 623 q 264 536 305 566 q 172 507 224 507 q 121 514 145 507 q 78 536 97 522 q 49 572 60 551 q 38 623 38 594 l 38 977 q 49 1028 38 1006 q 78 1064 60 1049 q 121 1086 97 1078 q 172 1094 145 1094 q 264 1064 224 1094 q 305 977 305 1034 l 305 623 m 219 974 q 205 1005 219 992 q 172 1018 192 1018 q 137 1005 150 1018 q 124 974 124 992 l 124 627 q 137 595 124 608 q 172 583 150 583 q 205 595 192 583 q 219 627 219 608 l 219 974 "},"Y":{"x_min":18.09375,"x_max":503.90625,"ha":522,"o":"m 263 566 l 388 967 l 503 967 l 315 408 l 315 -1 l 207 -1 l 207 408 l 18 967 l 133 967 l 204 740 l 258 566 l 263 566 "},"E":{"x_min":73,"x_max":487.1875,"ha":508,"o":"m 73 0 l 73 967 l 487 967 l 487 866 l 183 866 l 183 542 l 446 542 l 446 441 l 183 441 l 183 101 l 487 101 l 487 0 l 73 0 "},"Є":{"x_min":65,"x_max":498.640625,"ha":522,"o":"m 498 181 q 436 39 488 89 q 283 -10 383 -10 q 119 51 173 -10 q 65 223 65 112 l 65 701 q 74 802 65 752 q 106 889 83 851 q 173 951 130 927 q 283 975 216 975 q 436 925 387 975 q 494 793 484 876 l 386 767 q 359 845 384 817 q 281 874 333 874 q 227 858 248 874 q 195 820 206 843 q 179 769 183 797 q 175 717 175 742 l 175 549 l 398 549 l 398 442 l 175 442 l 175 228 q 179 183 175 208 q 195 139 183 159 q 227 104 206 118 q 280 91 247 91 q 356 118 329 91 q 386 203 383 145 l 498 181 "},"‹":{"x_min":63.890625,"x_max":320.859375,"ha":388,"o":"m 212 64 l 63 322 l 212 581 l 320 581 l 175 322 l 320 64 l 212 64 "},"₂":{"x_min":35.9375,"x_max":312,"ha":344,"o":"m 175 381 q 122 282 122 381 l 36 296 q 67 413 34 369 q 176 457 100 457 q 279 421 247 457 q 312 326 312 386 q 303 257 312 291 q 274 190 294 223 q 207 72 239 127 q 139 -46 176 16 l 308 -46 l 308 -125 l 40 -125 l 40 -61 l 201 225 q 219 274 215 248 q 224 324 224 300 q 215 363 224 346 q 175 381 207 381 "},"⇢":{"x_min":87,"x_max":1053.640625,"ha":1167,"o":"m 612 401 l 501 401 l 501 490 l 612 490 l 612 401 m 407 401 l 294 401 l 294 490 l 407 490 l 407 401 m 200 401 l 87 401 l 87 490 l 200 490 l 200 401 m 889 490 l 684 691 l 748 754 l 1053 445 l 748 139 l 684 201 l 889 402 l 705 400 l 705 490 l 889 490 "},"⁺":{"x_min":2.875,"x_max":340.34375,"ha":343,"o":"m 207 726 l 207 593 l 139 593 l 139 726 l 2 726 l 2 789 l 139 789 l 139 922 l 207 922 l 207 789 l 340 789 l 340 726 l 207 726 "},"|":{"x_min":104,"x_max":192,"ha":292,"o":"m 104 -225 l 104 995 l 192 995 l 192 -225 l 104 -225 "},"џ":{"x_min":66,"x_max":470,"ha":537,"o":"m 470 686 l 470 0 l 321 0 l 321 -177 l 217 -177 l 217 0 l 66 0 l 66 686 l 179 686 l 179 106 l 360 106 l 360 686 l 470 686 "},"љ":{"x_min":6.765625,"x_max":734,"ha":769,"o":"m 204 589 l 204 272 q 196 160 204 206 q 171 78 188 113 q 125 19 154 44 q 55 -24 97 -4 l 6 57 q 54 95 35 77 q 84 136 73 113 q 99 192 95 159 q 104 276 104 226 l 104 686 l 445 686 l 445 427 l 504 427 q 621 409 577 427 q 690 363 665 392 q 724 297 715 335 q 734 218 734 260 q 724 127 734 168 q 689 59 714 87 q 621 15 664 30 q 511 0 578 0 l 331 0 l 331 589 l 204 589 m 445 104 l 504 104 q 567 114 543 104 q 603 140 590 124 q 619 176 615 156 q 624 215 624 195 q 619 256 624 236 q 602 291 615 276 q 565 314 589 305 q 501 324 540 324 l 445 324 l 445 104 "},"й":{"x_min":62,"x_max":485,"ha":548,"o":"m 173 958 q 181 929 174 944 q 200 900 188 913 q 229 879 212 887 q 266 871 245 871 q 306 879 288 871 q 336 900 323 887 q 355 929 348 913 q 361 958 361 944 l 449 958 q 435 901 446 931 q 401 847 423 872 q 346 805 379 822 q 266 789 312 789 q 180 805 215 789 q 124 847 145 822 q 92 901 102 872 q 83 958 83 931 l 173 958 m 374 0 l 374 451 l 370 451 l 167 0 l 62 0 l 62 686 l 169 686 l 169 237 l 171 237 l 374 686 l 485 686 l 485 0 l 374 0 "},"q":{"x_min":43,"x_max":456,"ha":512,"o":"m 346 -269 l 346 65 l 343 65 q 281 10 322 27 q 209 -7 241 -7 q 119 17 152 -7 q 69 82 86 41 q 47 176 52 123 q 43 287 43 229 q 43 403 43 347 q 50 526 43 460 q 75 617 55 583 q 120 667 95 650 q 171 690 145 685 q 216 695 197 695 q 295 679 270 695 q 343 632 320 663 l 346 633 l 346 686 l 456 686 l 456 -269 l 346 -269 m 253 588 q 199 574 219 588 q 169 532 180 561 q 156 458 159 503 q 154 348 154 412 q 156 235 154 282 q 167 158 158 188 q 196 113 176 127 q 253 100 216 100 q 319 129 292 100 q 347 198 347 158 l 347 479 q 323 557 347 526 q 253 588 299 588 "},"b":{"x_min":56,"x_max":467,"ha":511,"o":"m 295 -8 q 216 7 241 -8 q 169 54 191 23 l 166 53 l 166 0 l 56 0 l 56 1008 l 166 1008 l 166 620 l 169 620 q 229 675 189 658 q 302 693 270 693 q 391 671 358 693 q 440 612 424 649 q 462 524 457 575 q 467 415 467 473 q 466 291 467 355 q 459 159 465 226 q 433 69 452 103 q 389 19 414 36 q 338 -3 364 1 q 295 -8 313 -8 m 257 99 q 311 112 292 99 q 341 154 330 125 q 354 228 351 183 q 357 337 357 273 q 354 450 357 404 q 343 527 352 497 q 314 572 334 558 q 257 586 294 586 q 191 556 218 586 q 165 487 165 527 l 165 207 q 188 129 165 160 q 257 99 211 99 "},"↵":{"x_min":113.53125,"x_max":1080,"ha":1166,"o":"m 990 961 l 1080 961 l 1080 401 l 280 402 l 483 201 l 419 139 l 113 445 l 419 753 l 483 691 l 280 490 l 990 490 l 990 961 "},"‣":{"x_min":112.515625,"x_max":658.390625,"ha":703,"o":"m 658 385 l 112 92 l 112 663 l 658 385 "},"Ж":{"x_min":28.03125,"x_max":901.984375,"ha":929,"o":"m 410 0 l 410 442 l 362 442 q 313 437 337 442 q 266 416 289 432 q 227 370 244 400 q 200 291 209 340 l 137 0 l 28 0 l 97 311 q 141 432 112 383 q 225 501 171 482 q 153 564 183 516 q 107 683 122 612 l 43 967 l 143 967 l 209 687 q 239 611 221 639 q 280 568 258 583 q 324 550 301 554 q 368 546 347 546 l 410 546 l 410 967 l 520 967 l 520 546 l 561 546 q 605 550 582 546 q 649 568 628 554 q 690 611 671 583 q 720 687 708 639 l 786 967 l 886 967 l 822 683 q 776 564 807 612 q 704 501 746 516 q 788 432 758 482 q 832 311 817 383 l 901 0 l 792 0 l 729 291 q 701 370 718 340 q 663 416 685 400 q 616 437 640 432 q 567 442 592 442 l 520 442 l 520 0 l 410 0 "},"Н":{"x_min":74,"x_max":518,"ha":593,"o":"m 408 0 l 408 446 l 184 446 l 184 0 l 74 0 l 74 967 l 184 967 l 184 542 l 408 542 l 408 967 l 518 967 l 518 0 l 408 0 "},"ф":{"x_min":46,"x_max":600,"ha":643,"o":"m 269 -9 q 146 21 191 -2 q 79 87 101 45 q 50 197 54 133 q 46 336 46 261 q 48 466 46 405 q 69 572 51 526 q 137 659 90 627 q 268 696 184 691 l 268 953 l 376 953 l 376 696 q 516 655 467 691 q 584 555 565 619 q 592 514 588 539 q 597 459 595 489 q 599 398 598 430 q 600 336 600 366 q 593 186 600 255 q 552 70 587 118 q 376 -9 506 8 l 376 -268 l 269 -268 l 269 -9 m 268 590 q 204 571 230 586 q 167 527 179 556 q 160 493 163 515 q 156 441 158 470 q 154 379 155 412 q 154 312 154 345 q 154 263 154 288 q 156 215 155 238 q 160 174 158 193 q 167 145 163 155 q 266 91 190 100 l 268 590 m 376 91 q 474 147 448 97 q 490 219 488 175 q 493 312 493 263 q 492 379 493 345 q 490 441 491 412 q 488 491 490 469 q 481 523 486 512 q 444 570 470 555 q 376 590 419 586 l 376 91 "},"л":{"x_min":6.765625,"x_max":469,"ha":518,"o":"m 6 57 q 54 95 35 77 q 84 136 73 113 q 99 192 95 159 q 104 276 104 226 l 104 686 l 469 686 l 469 0 l 358 0 l 358 589 l 204 589 l 204 272 q 196 160 204 206 q 171 78 188 113 q 125 19 154 44 q 55 -24 97 -4 l 6 57 "},"L":{"x_min":73,"x_max":464.96875,"ha":472,"o":"m 73 0 l 73 967 l 183 967 l 183 101 l 464 101 l 464 0 l 73 0 "},"Щ":{"x_min":73,"x_max":833,"ha":868,"o":"m 782 104 l 833 104 l 833 -182 l 736 -182 l 736 0 l 73 0 l 73 967 l 183 967 l 183 104 l 372 104 l 372 967 l 482 967 l 482 104 l 672 104 l 672 967 l 782 967 l 782 104 "},"↘":{"x_min":169.15625,"x_max":1062.375,"ha":1167,"o":"m 912 87 l 169 832 l 230 895 l 973 149 l 972 434 l 1062 434 l 1061 1 l 627 0 l 626 87 l 912 87 "}," ":{"x_min":0,"x_max":0,"ha":271},"+":{"x_min":12.875,"x_max":517.125,"ha":528,"o":"m 306 367 l 306 139 l 224 139 l 224 367 l 12 367 l 12 450 l 224 450 l 224 678 l 306 678 l 306 450 l 517 450 l 517 367 l 306 367 "},"₌":{"x_min":3,"x_max":341,"ha":344,"o":"m 3 28 l 3 93 l 341 93 l 341 28 l 3 28 m 3 152 l 3 217 l 341 217 l 341 152 l 3 152 "},"'":{"x_min":79,"x_max":164,"ha":239,"o":"m 79 699 l 79 967 l 164 967 l 164 699 l 79 699 "},"˛":{"x_min":381,"x_max":608.390625,"ha":549,"o":"m 381 -127 q 391 -68 381 -99 q 427 3 401 -37 l 495 3 l 497 0 q 467 -57 477 -31 q 457 -106 457 -83 q 472 -155 457 -143 q 515 -168 488 -168 q 547 -163 530 -168 q 584 -148 563 -159 l 608 -215 q 554 -240 584 -230 q 497 -250 525 -250 q 413 -218 445 -250 q 381 -127 381 -186 "},"Р":{"x_min":74,"x_max":515,"ha":548,"o":"m 270 967 q 391 947 344 967 q 466 891 438 928 q 504 800 494 854 q 515 679 515 747 q 505 565 515 618 q 467 473 495 512 q 391 411 440 433 q 262 389 341 389 l 184 389 l 184 0 l 74 0 l 74 967 l 270 967 m 184 492 l 258 492 q 338 507 308 492 q 383 547 367 522 q 403 606 399 572 q 408 676 408 639 q 403 750 408 715 q 383 811 398 785 q 338 851 367 836 q 261 866 309 866 l 184 866 l 184 492 "},"щ":{"x_min":67,"x_max":760,"ha":804,"o":"m 712 686 l 712 104 l 760 104 l 760 -150 l 661 -150 l 661 0 l 67 0 l 67 686 l 174 686 l 174 104 l 333 104 l 333 686 l 443 686 l 443 104 l 604 104 l 604 686 l 712 686 "},"⁷":{"x_min":20.828125,"x_max":291.6875,"ha":311,"o":"m 129 513 l 47 513 l 202 1018 l 98 1018 l 98 951 l 20 951 l 20 1090 l 291 1090 l 291 1028 l 129 513 "},"Т":{"x_min":7.09375,"x_max":445.90625,"ha":453,"o":"m 282 866 l 282 0 l 171 0 l 171 866 l 7 866 l 7 967 l 445 967 l 445 866 l 282 866 "},"W":{"x_min":31.953125,"x_max":773.671875,"ha":807,"o":"m 633 -1 l 530 -1 l 445 455 l 404 705 l 400 705 l 356 450 l 273 -1 l 172 -1 l 31 967 l 145 967 l 197 554 l 227 276 l 231 276 l 276 551 l 352 967 l 454 967 l 527 557 l 575 276 l 579 276 l 609 560 l 658 967 l 773 967 l 633 -1 "},"а":{"x_min":38,"x_max":444,"ha":501,"o":"m 332 59 q 268 7 304 22 q 189 -8 233 -8 q 117 9 146 -8 q 70 55 87 26 q 45 119 53 83 q 38 192 38 154 q 46 269 38 230 q 75 340 54 308 q 132 392 96 372 q 224 413 168 413 l 333 413 l 333 504 q 314 568 333 544 q 242 592 295 592 q 188 575 214 592 q 155 521 162 558 l 51 550 q 117 657 66 618 q 248 696 169 696 q 392 653 341 696 q 444 505 444 611 l 444 0 l 333 0 l 333 59 l 332 59 m 333 317 l 252 317 q 177 291 209 317 q 145 198 145 265 q 165 124 145 150 q 230 99 186 99 q 307 128 281 99 q 333 208 333 157 l 333 317 "},"v":{"x_min":6.9375,"x_max":461.140625,"ha":468,"o":"m 297 0 l 170 0 l 6 686 l 123 686 l 183 402 l 233 162 l 237 162 l 288 408 l 345 686 l 461 686 l 297 0 "},">":{"x_min":16.671875,"x_max":512.546875,"ha":528,"o":"m 16 118 l 16 209 l 427 408 l 16 608 l 16 700 l 512 445 l 512 372 l 16 118 "},"ә":{"x_min":44,"x_max":449,"ha":496,"o":"m 241 595 q 180 567 201 595 q 158 492 160 540 l 45 513 q 100 648 50 601 q 249 696 149 696 q 326 684 294 696 q 380 653 358 672 q 415 611 403 634 q 435 563 428 587 q 442 522 439 547 q 446 467 444 497 q 448 406 447 437 q 449 349 449 376 q 448 279 449 315 q 444 212 447 244 q 437 153 442 180 q 426 108 433 126 q 362 21 407 53 q 238 -10 316 -10 q 89 47 135 -10 q 44 204 44 104 l 44 374 l 339 374 q 336 464 339 419 q 328 532 334 508 q 241 595 308 595 m 155 285 l 155 226 q 158 174 155 198 q 171 133 161 151 q 199 104 181 114 q 244 94 216 94 q 290 105 269 94 q 324 149 311 117 q 333 202 331 169 q 338 285 336 236 l 155 285 "},"Ї":{"x_min":-22,"x_max":286,"ha":267,"o":"m 78 0 l 78 967 l 189 967 l 189 0 l 78 0 m 192 1067 l 192 1178 l 286 1178 l 286 1067 l 192 1067 m -22 1067 l -22 1178 l 74 1178 l 74 1067 l -22 1067 "},"Х":{"x_min":12.5,"x_max":511.15625,"ha":524,"o":"m 395 -1 l 261 382 l 127 -1 l 12 -1 l 205 507 l 27 967 l 143 967 l 261 626 l 380 967 l 495 967 l 313 507 l 511 -1 l 395 -1 "},"r":{"x_min":69,"x_max":343,"ha":357,"o":"m 181 608 q 242 678 208 660 q 330 696 277 696 l 343 696 l 343 564 q 322 566 331 565 q 304 567 313 567 q 211 538 244 567 q 179 437 179 510 l 179 0 l 69 0 l 69 686 l 179 686 l 179 608 l 181 608 "},"ж":{"x_min":20.578125,"x_max":783.40625,"ha":804,"o":"m 347 0 l 347 296 l 305 296 q 262 291 283 296 q 226 276 242 287 q 196 243 209 265 q 176 189 184 222 l 128 0 l 20 0 l 80 222 q 115 310 94 273 q 183 357 137 346 q 124 402 146 368 q 87 486 101 436 l 33 685 l 138 685 l 191 487 q 214 434 199 454 q 246 403 228 414 q 282 390 263 393 q 320 388 301 388 l 347 388 l 347 685 l 457 685 l 457 388 l 483 388 q 520 390 501 388 q 557 403 540 393 q 589 434 575 414 q 612 487 604 454 l 665 685 l 770 685 l 716 486 q 679 402 702 436 q 620 357 657 368 q 688 310 666 346 q 723 222 709 273 l 783 0 l 675 0 l 627 189 q 607 243 619 222 q 577 276 594 265 q 541 291 561 287 q 498 296 520 296 l 457 296 l 457 0 l 347 0 "},"₇":{"x_min":20.828125,"x_max":291.6875,"ha":311,"o":"m 129 -125 l 47 -125 l 202 381 l 98 381 l 98 314 l 20 314 l 20 453 l 291 453 l 291 391 l 129 -125 "},"x":{"x_min":8.328125,"x_max":454.203125,"ha":461,"o":"m 331 0 l 233 237 l 129 0 l 8 0 l 176 349 l 13 686 l 137 686 l 233 459 l 323 686 l 451 686 l 293 351 l 454 0 l 331 0 "},"с":{"x_min":44,"x_max":443,"ha":464,"o":"m 240 -10 q 165 1 197 -10 q 112 30 134 12 q 76 72 89 48 q 56 122 63 97 q 49 163 52 138 q 46 218 46 188 q 44 279 45 248 q 44 336 44 309 q 45 407 44 370 q 48 477 46 444 q 55 538 50 511 q 66 582 59 565 q 130 665 85 634 q 252 696 174 696 q 399 640 355 696 q 443 492 443 585 l 329 476 q 307 567 329 539 q 248 595 285 595 q 200 582 220 595 q 167 538 179 570 q 156 456 158 517 q 152 312 153 395 q 153 223 152 266 q 162 156 154 179 q 191 108 171 125 q 248 91 212 91 q 310 121 291 91 q 329 204 329 152 l 442 185 q 391 40 439 91 q 240 -10 343 -10 "},"h":{"x_min":53,"x_max":460,"ha":513,"o":"m 162 618 l 166 618 q 307 693 215 693 q 421 643 383 693 q 460 515 460 594 l 460 0 l 349 0 l 349 486 q 325 556 349 530 q 255 582 301 582 q 186 555 211 582 q 161 480 161 529 l 161 0 l 53 0 l 53 1008 l 162 1008 l 162 618 "},".":{"x_min":72,"x_max":193,"ha":268,"o":"m 72 0 l 72 126 l 193 126 l 193 0 l 72 0 "},"f":{"x_min":15,"x_max":303,"ha":342,"o":"m 196 593 l 196 0 l 85 0 l 85 593 l 15 593 l 15 685 l 85 685 l 85 853 q 126 970 85 931 q 239 1009 168 1009 l 303 1009 l 303 906 l 258 906 q 211 887 226 906 q 196 839 196 868 l 196 685 l 303 685 l 303 593 l 196 593 "},"“":{"x_min":64,"x_max":351,"ha":407,"o":"m 127 974 l 189 974 l 155 818 l 185 818 l 185 684 l 64 684 l 64 815 l 127 974 m 289 974 l 351 974 l 317 818 l 347 818 l 347 684 l 226 684 l 226 815 l 289 974 "},"A":{"x_min":18.0625,"x_max":534.765625,"ha":549,"o":"m 426 0 l 381 215 l 166 215 l 123 0 l 18 0 l 223 967 l 326 967 l 534 0 l 426 0 m 270 769 l 230 544 l 184 318 l 362 318 l 315 547 l 276 769 l 270 769 "},"O":{"x_min":65,"x_max":510,"ha":575,"o":"m 510 259 q 459 60 510 130 q 286 -10 408 -10 q 115 55 166 -10 q 65 227 65 120 l 65 704 q 74 804 65 755 q 107 890 83 852 q 174 952 131 929 q 287 975 217 975 q 403 954 359 975 q 471 898 447 934 q 502 813 494 862 q 510 706 510 765 l 510 259 m 400 724 q 396 775 400 749 q 381 823 393 801 q 347 859 370 844 q 287 874 325 874 q 223 853 245 874 q 190 806 201 833 q 177 747 179 778 q 175 695 175 716 l 175 226 q 179 182 175 206 q 195 138 183 158 q 229 104 208 117 q 286 91 251 91 q 343 104 320 91 q 377 140 365 118 q 395 189 390 161 q 400 246 400 217 l 400 724 "},"‘":{"x_min":92,"x_max":217,"ha":314,"o":"m 155 974 l 217 974 l 183 818 l 213 818 l 213 683 l 92 683 l 92 815 l 155 974 "},"3":{"x_min":64.296875,"x_max":459,"ha":528,"o":"m 457 198 q 440 103 457 142 q 397 38 424 63 q 334 1 369 13 q 258 -10 298 -10 q 163 6 201 -10 q 101 52 124 23 q 70 122 78 81 q 65 213 62 163 l 175 228 q 188 128 168 166 q 261 91 208 91 q 323 113 297 91 q 349 193 349 136 l 349 340 q 326 424 349 398 q 250 450 303 450 l 207 450 l 207 546 l 253 546 q 326 569 304 546 q 349 648 349 593 l 349 772 q 345 808 349 790 q 333 840 342 826 q 310 862 325 854 q 269 871 294 871 q 197 834 220 871 q 175 736 175 797 l 65 751 q 80 839 66 798 q 119 910 94 880 q 184 957 145 940 q 276 975 223 975 q 362 959 328 975 q 419 915 397 943 q 449 852 440 888 q 459 777 459 816 l 459 679 q 456 625 459 651 q 447 577 454 600 q 423 536 439 555 q 378 502 407 518 l 378 498 q 422 470 406 486 q 446 432 438 454 q 456 384 454 411 q 459 323 459 356 l 457 198 "},"9":{"x_min":68,"x_max":460,"ha":528,"o":"m 178 582 q 201 524 178 546 q 262 503 225 503 q 304 512 287 503 q 331 537 320 522 q 345 570 341 551 q 350 607 350 589 l 350 798 q 325 854 350 834 q 264 875 301 875 q 202 854 226 875 q 178 798 178 834 l 178 582 m 297 428 q 225 406 268 406 q 149 420 179 406 q 101 460 119 435 q 75 518 83 485 q 68 587 68 551 l 68 790 q 83 870 68 835 q 127 928 99 905 q 189 964 154 952 q 264 976 225 976 q 408 928 357 976 q 460 789 460 881 l 460 628 q 451 524 460 566 q 430 451 443 483 l 251 0 l 140 0 l 301 424 l 297 428 "},"l":{"x_min":68,"x_max":261,"ha":292,"o":"m 68 1008 l 179 1008 l 179 181 q 190 112 179 134 q 244 91 202 91 l 261 91 l 261 -10 l 238 -10 q 162 -2 194 -10 q 109 24 130 5 q 78 76 88 42 q 68 160 68 109 l 68 1008 "},"4":{"x_min":32.265625,"x_max":495.0625,"ha":528,"o":"m 427 153 l 427 0 l 317 0 l 317 153 l 32 153 l 32 251 l 235 967 l 343 967 l 139 252 l 317 252 l 317 520 l 427 520 l 427 252 l 495 252 l 495 153 l 427 153 "},"Ъ":{"x_min":24,"x_max":657,"ha":693,"o":"m 215 0 l 215 864 l 24 864 l 24 967 l 325 967 l 325 578 l 404 578 q 532 557 483 578 q 609 498 581 536 q 647 409 637 461 q 657 297 657 358 q 646 174 657 229 q 608 80 636 119 q 533 20 580 41 q 412 0 486 0 l 215 0 m 325 104 l 402 104 q 480 118 451 104 q 525 158 509 133 q 545 219 540 184 q 550 292 550 254 q 545 363 550 330 q 525 420 541 395 q 479 460 509 445 q 400 475 450 475 l 325 475 l 325 104 "},"₀":{"x_min":38,"x_max":305,"ha":343,"o":"m 305 -13 q 264 -100 305 -70 q 172 -130 224 -130 q 121 -122 145 -130 q 78 -100 97 -114 q 49 -64 60 -85 q 38 -13 38 -42 l 38 340 q 49 391 38 369 q 78 427 60 412 q 121 449 97 441 q 172 457 145 457 q 264 427 224 457 q 305 340 305 397 l 305 -13 m 219 337 q 205 368 219 355 q 172 381 192 381 q 137 368 150 381 q 124 337 124 355 l 124 -9 q 137 -41 124 -28 q 172 -54 150 -54 q 205 -41 192 -54 q 219 -9 219 -28 l 219 337 "}}}
